<svg xmlns="http://www.w3.org/2000/svg" xmlns:xlink="http://www.w3.org/1999/xlink" viewBox="0 0 221.17 87.85" class="tex-svg" aria-hidden="true" focusable="false" width="221.17" height="87.85">
<defs>
<g>
</g>
<g id="g089936eac202d08a10"><path d="M 5.671875 -3.671875 C 5.671875 -3.160156 5.6875 -2.71875 5.71875 -2.34375 L 5.125 -2 L 5.125 -7.8125 L 2.140625 -7.8125 L 2.140625 -2 L 1.53125 -1.703125 C 1.5625 -2.410156 1.578125 -3.5 1.578125 -4.96875 C 1.578125 -6.4375 1.5625 -7.597656 1.53125 -8.453125 L 2.140625 -8.0625 L 5.078125 -8.0625 L 5.375 -8.484375 L 6.015625 -7.984375 L 5.671875 -7.671875 Z M 0.640625 0.890625 C 1.722656 0.0976562 2.425781 -0.648438 2.75 -1.359375 C 3.082031 -2.078125 3.269531 -2.796875 3.3125 -3.515625 C 3.351562 -4.242188 3.359375 -5.363281 3.328125 -6.875 L 4.265625 -6.4375 L 3.921875 -6.140625 L 3.921875 -4.359375 C 3.953125 -3.242188 3.753906 -2.238281 3.328125 -1.34375 C 2.898438 -0.445312 2.03125 0.34375 0.71875 1.03125 Z M 3.875 -1.828125 C 5.300781 -1.148438 6.050781 -0.695312 6.125 -0.46875 C 6.195312 -0.238281 6.234375 -0.0664062 6.234375 0.046875 C 6.234375 0.210938 6.195312 0.359375 6.125 0.484375 C 6.050781 0.617188 6 0.6875 5.96875 0.6875 C 5.851562 0.6875 5.710938 0.515625 5.546875 0.171875 C 5.265625 -0.304688 4.679688 -0.929688 3.796875 -1.703125 Z M 7.078125 -1.5 C 7.109375 -2.207031 7.125 -3.207031 7.125 -4.5 C 7.125 -5.789062 7.109375 -6.796875 7.078125 -7.515625 L 8.015625 -7.046875 L 7.671875 -6.734375 L 7.671875 -3.078125 C 7.671875 -2.535156 7.6875 -2.109375 7.71875 -1.796875 Z M 7.171875 -0.078125 C 7.734375 -0.0234375 8.175781 0 8.5 0 C 8.832031 0 9 -0.171875 9 -0.515625 L 9 -7.203125 C 9 -7.742188 8.984375 -8.300781 8.953125 -8.875 L 9.9375 -8.40625 L 9.59375 -8.109375 L 9.59375 -0.25 C 9.625 0.375 9.3125 0.8125 8.65625 1.0625 C 8.601562 0.613281 8.109375 0.285156 7.171875 0.078125 Z M 7.171875 -0.078125 " />
</g><g id="g0d5ea79506bcbccf3c"><path d="M 2.765625 -1.390625 C 2.785156 -1.835938 2.796875 -2.734375 2.796875 -4.078125 C 2.796875 -5.429688 2.785156 -6.398438 2.765625 -6.984375 L 3.28125 -6.671875 L 5 -6.671875 L 5.265625 -6.953125 L 5.71875 -6.5 L 5.453125 -6.28125 L 5.453125 -3.28125 C 5.453125 -2.8125 5.460938 -2.347656 5.484375 -1.890625 L 5.03125 -1.671875 L 5.03125 -6.453125 L 3.25 -6.453125 L 3.25 -1.609375 Z M 3.875 -5.546875 L 4.609375 -5.171875 L 4.359375 -4.921875 C 4.390625 -3.335938 4.273438 -2.128906 4.015625 -1.296875 C 3.753906 -0.472656 3.054688 0.238281 1.921875 0.84375 L 1.84375 0.703125 C 2.664062 0.140625 3.203125 -0.429688 3.453125 -1.015625 C 3.710938 -1.597656 3.851562 -2.273438 3.875 -3.046875 C 3.894531 -3.828125 3.894531 -4.660156 3.875 -5.546875 Z M 4.328125 -1.328125 C 5.003906 -0.859375 5.394531 -0.535156 5.5 -0.359375 C 5.601562 -0.191406 5.65625 -0.0625 5.65625 0.03125 C 5.65625 0.144531 5.617188 0.253906 5.546875 0.359375 C 5.484375 0.472656 5.425781 0.53125 5.375 0.53125 C 5.28125 0.53125 5.1875 0.390625 5.09375 0.109375 C 4.957031 -0.316406 4.679688 -0.757812 4.265625 -1.21875 Z M 6.25 -1.15625 C 6.269531 -1.5 6.28125 -1.90625 6.28125 -2.375 L 6.28125 -4.75 C 6.28125 -5.257812 6.269531 -5.675781 6.25 -6 L 7.015625 -5.625 L 6.734375 -5.34375 L 6.734375 -2.375 C 6.734375 -2.019531 6.742188 -1.671875 6.765625 -1.328125 Z M 7.5 -0.203125 L 7.5 -5.65625 C 7.5 -6.3125 7.488281 -6.8125 7.46875 -7.15625 L 8.203125 -6.8125 L 7.953125 -6.5625 L 7.953125 -0.109375 C 7.953125 0.148438 7.90625 0.347656 7.8125 0.484375 C 7.726562 0.628906 7.546875 0.75 7.265625 0.84375 C 7.097656 0.488281 6.75 0.226562 6.21875 0.0625 L 6.21875 -0.0625 C 6.84375 0.0195312 7.210938 0.0546875 7.328125 0.046875 C 7.441406 0.0351562 7.5 -0.046875 7.5 -0.203125 Z M 2.578125 -4.890625 C 2.140625 -3.046875 1.882812 -1.984375 1.8125 -1.703125 C 1.71875 -1.398438 1.675781 -1.039062 1.6875 -0.625 C 1.695312 -0.207031 1.71875 0.0820312 1.75 0.25 C 1.75 0.34375 1.691406 0.390625 1.578125 0.390625 C 1.484375 0.390625 1.363281 0.363281 1.21875 0.3125 C 1.082031 0.269531 1.015625 0.164062 1.015625 0 C 1.015625 -0.113281 1.050781 -0.289062 1.125 -0.53125 C 1.1875 -0.757812 1.21875 -0.941406 1.21875 -1.078125 C 1.21875 -1.242188 1.164062 -1.375 1.0625 -1.46875 C 0.957031 -1.5625 0.734375 -1.65625 0.390625 -1.75 L 0.390625 -1.890625 C 0.804688 -1.835938 1.066406 -1.816406 1.171875 -1.828125 C 1.273438 -1.835938 1.390625 -1.941406 1.515625 -2.140625 C 1.640625 -2.335938 1.945312 -3.265625 2.4375 -4.921875 Z M 0.53125 -5.265625 C 1.175781 -4.867188 1.515625 -4.554688 1.546875 -4.328125 C 1.585938 -4.097656 1.5625 -3.945312 1.46875 -3.875 C 1.375 -3.800781 1.300781 -3.765625 1.25 -3.765625 C 1.164062 -3.765625 1.085938 -3.894531 1.015625 -4.15625 C 0.898438 -4.5 0.710938 -4.835938 0.453125 -5.171875 Z M 1.125 -7.125 C 1.75 -6.769531 2.09375 -6.492188 2.15625 -6.296875 C 2.226562 -6.097656 2.21875 -5.945312 2.125 -5.84375 C 2.03125 -5.738281 1.953125 -5.6875 1.890625 -5.6875 C 1.816406 -5.6875 1.742188 -5.789062 1.671875 -6 C 1.554688 -6.332031 1.347656 -6.671875 1.046875 -7.015625 Z M 1.125 -7.125 " />
</g><g id="g10ea6d82b134e9832f"><path d="M 2.484375 -3.703125 L 2.484375 -2.890625 L 4.46875 -2.890625 L 4.46875 -3.703125 Z M 1.984375 -2.09375 C 2.015625 -3.019531 2.03125 -4.066406 2.03125 -5.234375 C 1.582031 -4.722656 1.046875 -4.257812 0.421875 -3.84375 L 0.34375 -3.9375 C 0.863281 -4.382812 1.332031 -4.914062 1.75 -5.53125 C 2.164062 -6.144531 2.476562 -6.753906 2.6875 -7.359375 L 3.390625 -6.875 L 3.078125 -6.765625 L 2.546875 -5.9375 L 6.953125 -5.9375 L 7.359375 -6.359375 L 7.953125 -5.71875 L 4.921875 -5.71875 L 4.921875 -4.890625 L 6.5625 -4.890625 L 6.953125 -5.265625 L 7.5 -4.671875 L 4.921875 -4.671875 L 4.921875 -3.90625 L 6.5 -3.90625 L 6.875 -4.296875 L 7.4375 -3.703125 L 4.921875 -3.703125 L 4.921875 -2.890625 L 6.875 -2.890625 L 7.296875 -3.3125 L 7.890625 -2.6875 L 2.484375 -2.6875 L 2.484375 -2.265625 Z M 4.15625 -7.265625 C 4.59375 -7.097656 4.867188 -6.953125 4.984375 -6.828125 C 5.109375 -6.703125 5.171875 -6.59375 5.171875 -6.5 C 5.171875 -6.40625 5.128906 -6.296875 5.046875 -6.171875 C 4.960938 -6.054688 4.910156 -6 4.890625 -6 C 4.796875 -6 4.710938 -6.101562 4.640625 -6.3125 C 4.523438 -6.613281 4.335938 -6.894531 4.078125 -7.15625 Z M 2.484375 -5.71875 L 2.484375 -4.890625 L 4.46875 -4.890625 L 4.46875 -5.71875 Z M 2.484375 -4.671875 L 2.484375 -3.90625 L 4.46875 -3.90625 L 4.46875 -4.671875 Z M 4.296875 -1.8125 C 4.296875 -2.164062 4.285156 -2.445312 4.265625 -2.65625 L 5.03125 -2.375 L 4.75 -2.125 L 4.75 -1.8125 L 7.546875 -1.8125 L 7.953125 -2.234375 L 8.546875 -1.609375 L 5.125 -1.609375 C 5.570312 -1.097656 6.070312 -0.703125 6.625 -0.421875 C 7.1875 -0.140625 7.84375 0.0351562 8.59375 0.109375 L 8.59375 0.203125 C 8.238281 0.273438 8.023438 0.425781 7.953125 0.65625 C 7.347656 0.476562 6.800781 0.222656 6.3125 -0.109375 C 5.832031 -0.453125 5.378906 -0.953125 4.953125 -1.609375 L 4.75 -1.609375 C 4.75 -0.441406 4.757812 0.300781 4.78125 0.625 L 4.265625 0.90625 C 4.285156 0.164062 4.296875 -0.660156 4.296875 -1.578125 C 3.804688 -1.035156 3.25 -0.578125 2.625 -0.203125 C 2.007812 0.160156 1.273438 0.492188 0.421875 0.796875 L 0.390625 0.65625 C 1.222656 0.289062 1.929688 -0.101562 2.515625 -0.53125 C 3.097656 -0.96875 3.492188 -1.328125 3.703125 -1.609375 L 1.53125 -1.609375 C 1.226562 -1.609375 0.953125 -1.570312 0.703125 -1.5 L 0.390625 -1.8125 Z M 4.296875 -1.8125 " />
</g><g id="g165caa390c0dcf9405"><path d="M 2.09375 -0.578125 C 2.09375 -0.890625 1.828125 -1.15625 1.515625 -1.15625 C 1.203125 -1.15625 0.9375 -0.890625 0.9375 -0.578125 C 0.9375 -0.265625 1.203125 0 1.515625 0 C 1.828125 0 2.09375 -0.265625 2.09375 -0.578125 Z M 2.09375 -0.578125 " />
</g><g id="g183c8344082a5ae6ac"><path d="M 8.25 -5.953125 C 8.25 -6.765625 7.53125 -7.453125 6.21875 -7.453125 L 2.5625 -7.453125 C 2.34375 -7.453125 2.234375 -7.453125 2.234375 -7.234375 C 2.234375 -7.125 2.34375 -7.125 2.546875 -7.125 C 2.546875 -7.125 2.78125 -7.125 2.953125 -7.09375 C 3.15625 -7.078125 3.25 -7.0625 3.25 -6.921875 C 3.25 -6.875 3.25 -6.84375 3.21875 -6.71875 L 1.75 -0.859375 C 1.640625 -0.421875 1.609375 -0.34375 0.75 -0.34375 C 0.5625 -0.34375 0.453125 -0.34375 0.453125 -0.125 C 0.453125 0 0.5625 0 0.75 0 L 4.65625 0 C 6.375 0 7.671875 -1.28125 7.671875 -2.359375 C 7.671875 -3.140625 7.03125 -3.78125 5.96875 -3.90625 C 7.109375 -4.109375 8.25 -4.921875 8.25 -5.953125 Z M 7.265625 -6 C 7.265625 -5.03125 6.328125 -4 4.984375 -4 L 3.390625 -4 L 4.078125 -6.703125 C 4.171875 -7.09375 4.1875 -7.125 4.65625 -7.125 L 6.078125 -7.125 C 7.03125 -7.125 7.265625 -6.484375 7.265625 -6 Z M 6.65625 -2.484375 C 6.65625 -1.390625 5.671875 -0.34375 4.390625 -0.34375 L 2.90625 -0.34375 C 2.75 -0.34375 2.734375 -0.34375 2.671875 -0.34375 C 2.5625 -0.359375 2.515625 -0.375 2.515625 -0.453125 C 2.515625 -0.484375 2.515625 -0.515625 2.578125 -0.703125 L 3.328125 -3.75 L 5.390625 -3.75 C 6.4375 -3.75 6.65625 -2.953125 6.65625 -2.484375 Z M 6.65625 -2.484375 " />
</g><g id="g1afc2da8b6d06e38f9"><path d="M 1.9375 -0.25 C 2.09375 -0.445312 2.226562 -0.734375 2.34375 -1.109375 C 2.09375 -1.109375 1.910156 -1.148438 1.796875 -1.234375 C 1.679688 -1.316406 1.601562 -1.429688 1.5625 -1.578125 C 1.519531 -1.722656 1.507812 -1.859375 1.53125 -1.984375 C 1.5625 -2.109375 1.660156 -2.234375 1.828125 -2.359375 C 2.003906 -2.492188 2.21875 -2.53125 2.46875 -2.46875 C 2.726562 -2.414062 2.882812 -2.3125 2.9375 -2.15625 C 3 -2 3.03125 -1.847656 3.03125 -1.703125 C 3.03125 -1.535156 2.984375 -1.316406 2.890625 -1.046875 C 2.804688 -0.773438 2.613281 -0.472656 2.3125 -0.140625 C 2.019531 0.179688 1.78125 0.351562 1.59375 0.375 C 1.414062 0.40625 1.328125 0.410156 1.328125 0.390625 C 1.328125 0.359375 1.367188 0.3125 1.453125 0.25 C 1.617188 0.113281 1.78125 -0.0507812 1.9375 -0.25 Z M 1.9375 -0.25 " />
</g><g id="g1cb0de1f29c6a38da0"><path d="M 5.71875 -5.515625 L 5.71875 -4.40625 L 7.09375 -4.40625 L 7.09375 -5.515625 Z M 4.078125 -4.1875 L 3.90625 -3.03125 L 5.265625 -3.03125 L 5.265625 -4.1875 Z M 5.234375 0 C 5.253906 -0.65625 5.265625 -1.492188 5.265625 -2.515625 C 4.734375 -1.722656 3.957031 -1.0625 2.9375 -0.53125 L 2.828125 -0.625 C 3.878906 -1.394531 4.578125 -2.128906 4.921875 -2.828125 L 3.9375 -2.828125 L 3.671875 -2.515625 L 3.171875 -2.96875 C 3.335938 -3.007812 3.441406 -3.144531 3.484375 -3.375 C 3.535156 -3.613281 3.582031 -4.0625 3.625 -4.71875 L 4.125 -4.40625 L 5.265625 -4.40625 L 5.265625 -5.515625 L 4.328125 -5.515625 C 4.023438 -5.515625 3.742188 -5.476562 3.484375 -5.40625 L 3.171875 -5.71875 L 4.640625 -5.71875 C 4.597656 -6 4.503906 -6.25 4.359375 -6.46875 C 4.222656 -6.695312 4.070312 -6.890625 3.90625 -7.046875 L 3.984375 -7.15625 C 4.660156 -6.78125 5.015625 -6.53125 5.046875 -6.40625 C 5.078125 -6.28125 5.09375 -6.191406 5.09375 -6.140625 C 5.09375 -5.984375 5 -5.84375 4.8125 -5.71875 L 5.796875 -5.71875 C 6.140625 -6.394531 6.347656 -6.898438 6.421875 -7.234375 L 7.09375 -6.765625 C 6.925781 -6.722656 6.75 -6.597656 6.5625 -6.390625 C 6.375 -6.160156 6.1875 -5.9375 6 -5.71875 L 7.046875 -5.71875 L 7.359375 -6.046875 L 7.859375 -5.59375 L 7.546875 -5.375 C 7.546875 -4.957031 7.554688 -4.523438 7.578125 -4.078125 L 7.09375 -3.875 L 7.09375 -4.1875 L 5.71875 -4.1875 L 5.71875 -3.03125 L 7.359375 -3.03125 L 7.71875 -3.390625 L 8.171875 -2.9375 L 7.921875 -2.71875 C 7.921875 -1.90625 7.882812 -1.394531 7.8125 -1.1875 C 7.75 -0.976562 7.554688 -0.800781 7.234375 -0.65625 C 7.085938 -0.96875 6.796875 -1.179688 6.359375 -1.296875 L 6.359375 -1.4375 C 6.867188 -1.34375 7.15625 -1.304688 7.21875 -1.328125 C 7.289062 -1.347656 7.347656 -1.398438 7.390625 -1.484375 C 7.441406 -1.566406 7.46875 -2.015625 7.46875 -2.828125 L 5.71875 -2.828125 C 5.71875 -1.546875 5.734375 -0.6875 5.765625 -0.25 Z M 2.265625 -1.046875 C 2.472656 -0.816406 2.773438 -0.578125 3.171875 -0.328125 C 3.566406 -0.0859375 4.269531 0.046875 5.28125 0.078125 C 6.300781 0.117188 7.390625 0.0703125 8.546875 -0.0625 L 8.546875 0.0625 C 8.128906 0.1875 7.910156 0.375 7.890625 0.625 C 6.867188 0.644531 6.023438 0.632812 5.359375 0.59375 C 4.691406 0.550781 4.148438 0.453125 3.734375 0.296875 C 3.316406 0.140625 2.957031 -0.0859375 2.65625 -0.390625 C 2.351562 -0.691406 2.160156 -0.859375 2.078125 -0.890625 C 1.992188 -0.921875 1.8125 -0.789062 1.53125 -0.5 C 1.257812 -0.207031 1.050781 0.0625 0.90625 0.3125 L 0.390625 -0.140625 C 0.804688 -0.398438 1.28125 -0.710938 1.8125 -1.078125 L 1.8125 -3.9375 L 1.53125 -3.9375 C 1.226562 -3.9375 0.953125 -3.90625 0.703125 -3.84375 L 0.390625 -4.15625 L 1.703125 -4.15625 L 2.09375 -4.53125 L 2.625 -4.015625 L 2.265625 -3.8125 Z M 1.15625 -6.90625 L 1.21875 -6.984375 C 1.632812 -6.753906 1.929688 -6.550781 2.109375 -6.375 C 2.285156 -6.195312 2.375 -6.03125 2.375 -5.875 C 2.375 -5.726562 2.328125 -5.613281 2.234375 -5.53125 C 2.140625 -5.445312 2.070312 -5.40625 2.03125 -5.40625 C 1.9375 -5.40625 1.851562 -5.554688 1.78125 -5.859375 C 1.664062 -6.234375 1.457031 -6.582031 1.15625 -6.90625 Z M 1.15625 -6.90625 " />
</g><g id="g28effd3c3ff7bcf0d9"><path d="M 7 -6.734375 L 7 -5.375 L 8.65625 -5.375 L 8.65625 -6.734375 Z M 4.984375 -5.125 L 4.78125 -3.71875 L 6.4375 -3.71875 L 6.4375 -5.125 Z M 6.40625 0 C 6.425781 -0.789062 6.4375 -1.816406 6.4375 -3.078125 C 5.789062 -2.109375 4.835938 -1.296875 3.578125 -0.640625 L 3.453125 -0.765625 C 4.734375 -1.703125 5.585938 -2.597656 6.015625 -3.453125 L 4.828125 -3.453125 L 4.484375 -3.078125 L 3.875 -3.625 C 4.082031 -3.6875 4.210938 -3.859375 4.265625 -4.140625 C 4.328125 -4.421875 4.382812 -4.960938 4.4375 -5.765625 L 5.03125 -5.375 L 6.4375 -5.375 L 6.4375 -6.734375 L 5.296875 -6.734375 C 4.921875 -6.734375 4.578125 -6.691406 4.265625 -6.609375 L 3.875 -7 L 5.671875 -7 C 5.617188 -7.34375 5.503906 -7.644531 5.328125 -7.90625 C 5.160156 -8.175781 4.976562 -8.414062 4.78125 -8.625 L 4.859375 -8.75 C 5.679688 -8.289062 6.113281 -7.984375 6.15625 -7.828125 C 6.207031 -7.671875 6.234375 -7.566406 6.234375 -7.515625 C 6.234375 -7.304688 6.117188 -7.132812 5.890625 -7 L 7.078125 -7 C 7.503906 -7.820312 7.757812 -8.429688 7.84375 -8.828125 L 8.65625 -8.28125 C 8.457031 -8.21875 8.242188 -8.0625 8.015625 -7.8125 C 7.785156 -7.519531 7.5625 -7.25 7.34375 -7 L 8.625 -7 L 9 -7.375 L 9.59375 -6.828125 L 9.21875 -6.5625 C 9.21875 -6.050781 9.234375 -5.523438 9.265625 -4.984375 L 8.65625 -4.734375 L 8.65625 -5.125 L 7 -5.125 L 7 -3.71875 L 9 -3.71875 L 9.421875 -4.140625 L 9.984375 -3.578125 L 9.6875 -3.328125 C 9.6875 -2.328125 9.640625 -1.695312 9.546875 -1.4375 C 9.460938 -1.1875 9.222656 -0.976562 8.828125 -0.8125 C 8.660156 -1.175781 8.304688 -1.429688 7.765625 -1.578125 L 7.765625 -1.75 C 8.390625 -1.632812 8.742188 -1.585938 8.828125 -1.609375 C 8.910156 -1.640625 8.976562 -1.707031 9.03125 -1.8125 C 9.09375 -1.914062 9.125 -2.460938 9.125 -3.453125 L 7 -3.453125 C 7 -1.890625 7.015625 -0.835938 7.046875 -0.296875 Z M 2.765625 -1.28125 C 3.023438 -1 3.394531 -0.707031 3.875 -0.40625 C 4.363281 -0.101562 5.222656 0.0664062 6.453125 0.109375 C 7.691406 0.148438 9.023438 0.0859375 10.453125 -0.078125 L 10.453125 0.078125 C 9.941406 0.222656 9.671875 0.453125 9.640625 0.765625 C 8.390625 0.796875 7.359375 0.78125 6.546875 0.71875 C 5.734375 0.664062 5.070312 0.546875 4.5625 0.359375 C 4.050781 0.171875 3.613281 -0.101562 3.25 -0.46875 C 2.875 -0.84375 2.632812 -1.050781 2.53125 -1.09375 C 2.4375 -1.132812 2.21875 -0.972656 1.875 -0.609375 C 1.53125 -0.253906 1.273438 0.078125 1.109375 0.390625 L 0.46875 -0.171875 C 0.976562 -0.484375 1.5625 -0.867188 2.21875 -1.328125 L 2.21875 -4.828125 L 1.875 -4.828125 C 1.507812 -4.828125 1.171875 -4.78125 0.859375 -4.6875 L 0.46875 -5.078125 L 2.09375 -5.078125 L 2.5625 -5.546875 L 3.203125 -4.90625 L 2.765625 -4.65625 Z M 1.40625 -8.453125 L 1.5 -8.53125 C 2.007812 -8.25 2.367188 -8 2.578125 -7.78125 C 2.796875 -7.570312 2.90625 -7.375 2.90625 -7.1875 C 2.90625 -7 2.847656 -6.851562 2.734375 -6.75 C 2.617188 -6.65625 2.53125 -6.609375 2.46875 -6.609375 C 2.351562 -6.609375 2.253906 -6.796875 2.171875 -7.171875 C 2.035156 -7.617188 1.78125 -8.046875 1.40625 -8.453125 Z M 1.40625 -8.453125 " />
</g><g id="g30f4c8b890f5a38d28"><path d="M 6.3125 -2.734375 L 6.3125 -0.34375 L 9.046875 -0.34375 L 9.046875 -2.734375 Z M 5.671875 0.9375 C 5.703125 0.164062 5.71875 -1.367188 5.71875 -3.671875 C 5.71875 -5.972656 5.703125 -7.453125 5.671875 -8.109375 L 6.3125 -7.671875 L 8.953125 -7.671875 L 9.296875 -8.15625 L 10.03125 -7.546875 L 9.640625 -7.25 C 9.640625 -2.726562 9.65625 -0.140625 9.6875 0.515625 L 9.046875 0.8125 L 9.046875 -0.078125 L 6.3125 -0.078125 L 6.3125 0.6875 Z M 6.3125 -7.421875 L 6.3125 -5.296875 L 9.046875 -5.296875 L 9.046875 -7.421875 Z M 6.3125 -5.03125 L 6.3125 -2.984375 L 9.046875 -2.984375 L 9.046875 -5.03125 Z M 2.8125 -6.0625 C 2.8125 -7.195312 2.796875 -8.132812 2.765625 -8.875 L 3.75 -8.453125 L 3.375 -8.109375 L 3.375 -6.0625 L 4.21875 -6.0625 L 4.734375 -6.609375 L 5.46875 -5.796875 L 3.375 -5.796875 L 3.375 -4.78125 C 3.9375 -4.601562 4.320312 -4.429688 4.53125 -4.265625 C 4.75 -4.097656 4.859375 -3.914062 4.859375 -3.71875 C 4.859375 -3.601562 4.828125 -3.457031 4.765625 -3.28125 C 4.710938 -3.113281 4.660156 -3.03125 4.609375 -3.03125 C 4.546875 -3.03125 4.445312 -3.171875 4.3125 -3.453125 C 4.082031 -3.878906 3.769531 -4.25 3.375 -4.5625 C 3.375 -1.78125 3.382812 -0.03125 3.40625 0.6875 L 2.765625 0.984375 C 2.796875 -0.773438 2.8125 -2.453125 2.8125 -4.046875 C 2.25 -2.773438 1.492188 -1.640625 0.546875 -0.640625 L 0.421875 -0.71875 C 1.566406 -2.40625 2.335938 -4.097656 2.734375 -5.796875 L 2.09375 -5.796875 C 1.71875 -5.796875 1.375 -5.753906 1.0625 -5.671875 L 0.6875 -6.0625 Z M 2.8125 -6.0625 " />
</g><g id="g3465c03aff4d4c8114"><path d="M 3.109375 -4.21875 L 3.109375 -3 L 6.3125 -3 L 6.3125 -4.21875 Z M 3.109375 -2.796875 L 3.109375 -1.640625 L 6.3125 -1.640625 L 6.3125 -2.796875 Z M 5.09375 0 C 5.488281 0.0703125 5.789062 0.109375 6 0.109375 C 6.207031 0.109375 6.3125 0.00390625 6.3125 -0.203125 L 6.3125 -1.4375 L 3.109375 -1.4375 L 3.109375 0.5625 L 2.578125 0.875 C 2.609375 0.476562 2.625 -1.035156 2.625 -3.671875 C 1.96875 -2.972656 1.253906 -2.390625 0.484375 -1.921875 L 0.390625 -2.03125 C 1.035156 -2.539062 1.597656 -3.066406 2.078125 -3.609375 C 2.554688 -4.160156 3.015625 -4.851562 3.453125 -5.6875 L 1.53125 -5.6875 C 1.226562 -5.6875 0.953125 -5.65625 0.703125 -5.59375 L 0.390625 -5.90625 L 3.53125 -5.90625 C 3.78125 -6.476562 3.941406 -6.953125 4.015625 -7.328125 L 4.890625 -6.84375 L 4.53125 -6.703125 C 4.375 -6.378906 4.238281 -6.113281 4.125 -5.90625 L 7.09375 -5.90625 L 7.6875 -6.5 L 8.484375 -5.6875 L 4.046875 -5.6875 C 3.796875 -5.226562 3.53125 -4.8125 3.25 -4.4375 L 6.25 -4.4375 L 6.53125 -4.78125 L 7.125 -4.328125 L 6.8125 -4.078125 L 6.8125 0.03125 C 6.8125 0.40625 6.554688 0.6875 6.046875 0.875 C 6.066406 0.59375 5.75 0.359375 5.09375 0.171875 Z M 5.09375 0 " />
</g><g id="g34a1af443561908d94"><path d="M 6.78125 -5.890625 C 6.78125 -7.421875 6.765625 -8.414062 6.734375 -8.875 L 7.8125 -8.40625 L 7.375 -8.109375 L 7.375 -5.890625 L 8.625 -5.890625 L 9.21875 -6.484375 L 10.0625 -5.625 L 7.375 -5.625 L 7.375 -3.28125 L 8.484375 -3.28125 L 9.046875 -3.84375 L 9.859375 -3.03125 L 7.375 -3.03125 L 7.375 -0.046875 L 9.046875 -0.046875 L 9.640625 -0.640625 L 10.5 0.21875 L 4.90625 0.21875 C 4.539062 0.21875 4.195312 0.257812 3.875 0.34375 L 3.5 -0.046875 L 6.78125 -0.046875 L 6.78125 -3.03125 L 5.890625 -3.03125 C 5.515625 -3.03125 5.171875 -2.988281 4.859375 -2.90625 L 4.484375 -3.28125 L 6.78125 -3.28125 L 6.78125 -5.625 L 5.03125 -5.625 C 4.664062 -4.71875 4.253906 -3.976562 3.796875 -3.40625 L 3.671875 -3.5 C 4.015625 -4.175781 4.296875 -4.9375 4.515625 -5.78125 C 4.742188 -6.625 4.890625 -7.3125 4.953125 -7.84375 L 5.9375 -7.375 L 5.546875 -7.125 L 5.125 -5.890625 Z M 1.5 -6.1875 C 1.582031 -5.332031 1.59375 -4.796875 1.53125 -4.578125 C 1.476562 -4.367188 1.382812 -4.226562 1.25 -4.15625 C 1.125 -4.082031 1.019531 -4.046875 0.9375 -4.046875 C 0.882812 -4.046875 0.804688 -4.066406 0.703125 -4.109375 C 0.597656 -4.160156 0.546875 -4.195312 0.546875 -4.21875 C 0.546875 -4.332031 0.648438 -4.503906 0.859375 -4.734375 C 1.109375 -5.046875 1.265625 -5.53125 1.328125 -6.1875 Z M 2.6875 -6.734375 C 3.144531 -6.566406 3.472656 -6.410156 3.671875 -6.265625 C 3.867188 -6.128906 3.953125 -5.945312 3.921875 -5.71875 C 3.890625 -5.488281 3.816406 -5.332031 3.703125 -5.25 C 3.597656 -5.164062 3.488281 -5.28125 3.375 -5.59375 C 3.226562 -5.90625 3 -6.21875 2.6875 -6.53125 L 2.6875 -0.859375 C 2.6875 -0.367188 2.703125 0.15625 2.734375 0.71875 L 2.046875 1.03125 C 2.078125 0.195312 2.09375 -0.539062 2.09375 -1.1875 L 2.09375 -7.203125 C 2.09375 -7.691406 2.078125 -8.273438 2.046875 -8.953125 L 3.078125 -8.484375 L 2.6875 -8.1875 Z M 2.6875 -6.734375 " />
</g><g id="g3a06732d41ef58e1ef"><path d="M 5.296875 -8.828125 C 6.117188 -8.378906 6.519531 -8.03125 6.5 -7.78125 C 6.488281 -7.539062 6.441406 -7.378906 6.359375 -7.296875 C 6.273438 -7.210938 6.203125 -7.171875 6.140625 -7.171875 C 6.054688 -7.171875 5.972656 -7.296875 5.890625 -7.546875 C 5.773438 -7.890625 5.53125 -8.289062 5.15625 -8.75 Z M 5.15625 -6.234375 C 5.726562 -5.890625 6.0625 -5.628906 6.15625 -5.453125 C 6.257812 -5.285156 6.3125 -5.160156 6.3125 -5.078125 C 6.3125 -4.910156 6.253906 -4.753906 6.140625 -4.609375 C 6.023438 -4.460938 5.941406 -4.390625 5.890625 -4.390625 C 5.804688 -4.390625 5.75 -4.503906 5.71875 -4.734375 C 5.632812 -5.109375 5.421875 -5.578125 5.078125 -6.140625 Z M 8.40625 -6.265625 L 9.09375 -5.71875 C 8.800781 -5.570312 8.328125 -5.101562 7.671875 -4.3125 L 7.546875 -4.390625 C 7.953125 -5.078125 8.238281 -5.703125 8.40625 -6.265625 Z M 5.421875 -2.515625 L 5.421875 -1.40625 L 8.625 -1.40625 L 8.625 -2.515625 Z M 5.421875 -1.15625 L 5.421875 0 L 8.625 0 L 8.625 -1.15625 Z M 4.3125 -7.375 L 4.859375 -7 L 7.375 -7 C 7.863281 -7.769531 8.191406 -8.410156 8.359375 -8.921875 L 9.09375 -8.3125 C 8.800781 -8.226562 8.316406 -7.789062 7.640625 -7 L 9.125 -7 L 9.421875 -7.375 L 10.03125 -6.875 L 9.734375 -6.609375 L 9.734375 -4.515625 C 9.734375 -4.296875 9.742188 -3.941406 9.765625 -3.453125 L 9.21875 -3.25 L 9.21875 -3.671875 L 4.859375 -3.671875 L 4.859375 -3.40625 L 4.3125 -3.203125 C 4.34375 -3.859375 4.359375 -4.578125 4.359375 -5.359375 C 4.359375 -6.140625 4.34375 -6.8125 4.3125 -7.375 Z M 4.859375 -6.734375 L 4.859375 -3.921875 L 6.734375 -3.921875 L 6.734375 -6.734375 Z M 7.25 -6.734375 L 7.25 -3.921875 L 9.21875 -3.921875 L 9.21875 -6.734375 Z M 4.828125 -3.109375 L 5.421875 -2.765625 L 8.53125 -2.765625 L 8.828125 -3.203125 L 9.46875 -2.6875 L 9.171875 -2.390625 L 9.171875 -0.8125 C 9.171875 -0.4375 9.1875 0.0625 9.21875 0.6875 L 8.625 0.9375 L 8.625 0.25 L 5.421875 0.25 L 5.421875 0.765625 L 4.828125 1.03125 C 4.847656 0.34375 4.859375 -0.359375 4.859375 -1.078125 C 4.859375 -1.804688 4.847656 -2.484375 4.828125 -3.109375 Z M 2.046875 -8.75 L 2.984375 -8.3125 L 2.640625 -8.015625 L 2.640625 -5.84375 L 2.984375 -5.84375 L 3.453125 -6.3125 L 4.1875 -5.59375 L 2.640625 -5.59375 L 2.640625 -1.96875 L 4.1875 -2.4375 L 4.21875 -2.265625 C 2.226562 -1.441406 1.148438 -0.867188 0.984375 -0.546875 L 0.46875 -1.328125 C 0.863281 -1.410156 1.40625 -1.566406 2.09375 -1.796875 L 2.09375 -5.59375 L 1.875 -5.59375 C 1.507812 -5.59375 1.171875 -5.550781 0.859375 -5.46875 L 0.46875 -5.84375 L 2.09375 -5.84375 L 2.09375 -7.25 C 2.09375 -7.707031 2.078125 -8.207031 2.046875 -8.75 Z M 2.046875 -8.75 " />
</g><g id="g3b06ba7a68cb4c6d16"><path d="M 0.71875 -8.0625 L 0.8125 -8.15625 C 1.71875 -7.664062 2.191406 -7.289062 2.234375 -7.03125 C 2.273438 -6.78125 2.238281 -6.585938 2.125 -6.453125 C 2.019531 -6.328125 1.9375 -6.265625 1.875 -6.265625 C 1.789062 -6.265625 1.707031 -6.410156 1.625 -6.703125 C 1.476562 -7.066406 1.175781 -7.519531 0.71875 -8.0625 Z M 0.46875 -3.328125 C 0.84375 -3.242188 1.09375 -3.203125 1.21875 -3.203125 C 1.34375 -3.203125 1.484375 -3.347656 1.640625 -3.640625 C 1.796875 -3.941406 2.203125 -5.003906 2.859375 -6.828125 L 3.03125 -6.734375 C 2.320312 -4.429688 1.929688 -3.160156 1.859375 -2.921875 C 1.785156 -2.679688 1.75 -2.410156 1.75 -2.109375 C 1.75 -1.804688 1.773438 -1.429688 1.828125 -0.984375 C 1.859375 -0.492188 1.773438 -0.253906 1.578125 -0.265625 C 1.378906 -0.285156 1.238281 -0.351562 1.15625 -0.46875 C 1.070312 -0.582031 1.03125 -0.710938 1.03125 -0.859375 C 1.03125 -0.992188 1.039062 -1.117188 1.0625 -1.234375 C 1.144531 -1.546875 1.191406 -1.882812 1.203125 -2.25 C 1.222656 -2.625 0.960938 -2.925781 0.421875 -3.15625 Z M 9.6875 0 L 10.109375 -1.625 L 10.28125 -1.578125 C 10.226562 -1.148438 10.191406 -0.742188 10.171875 -0.359375 C 10.160156 0.0234375 10.195312 0.34375 10.28125 0.59375 C 10.34375 0.789062 10.300781 0.890625 10.15625 0.890625 C 10.125 0.890625 10.03125 0.867188 9.875 0.828125 C 9.71875 0.785156 9.441406 0.613281 9.046875 0.3125 C 8.648438 0.0195312 8.265625 -0.46875 7.890625 -1.15625 C 7.210938 -0.351562 6.289062 0.34375 5.125 0.9375 L 5.03125 0.765625 C 6.144531 0.0546875 7.015625 -0.765625 7.640625 -1.703125 C 7.441406 -2.410156 7.304688 -3.15625 7.234375 -3.9375 C 7.160156 -4.726562 7.125 -5.617188 7.125 -6.609375 L 3.96875 -6.609375 C 4 -4.734375 3.941406 -3.425781 3.796875 -2.6875 C 3.648438 -1.945312 3.40625 -1.285156 3.0625 -0.703125 C 2.726562 -0.117188 2.25 0.457031 1.625 1.03125 L 1.5 0.890625 C 2.175781 0.128906 2.648438 -0.679688 2.921875 -1.546875 C 3.191406 -2.421875 3.332031 -3.347656 3.34375 -4.328125 C 3.363281 -5.304688 3.359375 -6.28125 3.328125 -7.25 L 3.96875 -6.875 L 7.125 -6.875 C 7.125 -7.5 7.109375 -8.179688 7.078125 -8.921875 L 8.015625 -8.453125 L 7.71875 -8.1875 L 7.71875 -6.875 L 9.171875 -6.875 L 9.640625 -7.375 L 10.375 -6.609375 L 7.71875 -6.609375 C 7.71875 -5.703125 7.738281 -4.90625 7.78125 -4.21875 C 7.820312 -3.539062 7.914062 -2.929688 8.0625 -2.390625 C 8.289062 -2.753906 8.519531 -3.234375 8.75 -3.828125 C 8.976562 -4.429688 9.160156 -4.976562 9.296875 -5.46875 L 10.15625 -4.859375 L 9.765625 -4.65625 C 9.285156 -3.507812 8.789062 -2.523438 8.28125 -1.703125 C 8.59375 -0.960938 9.0625 -0.394531 9.6875 0 Z M 4.265625 -5.328125 L 5.890625 -5.328125 L 6.3125 -5.765625 L 6.953125 -5.078125 L 5.625 -5.078125 C 5.226562 -5.078125 4.90625 -5.035156 4.65625 -4.953125 Z M 4.4375 -0.421875 C 4.46875 -1.046875 4.484375 -1.675781 4.484375 -2.3125 C 4.484375 -2.957031 4.46875 -3.59375 4.4375 -4.21875 L 5.03125 -3.84375 L 6.09375 -3.84375 L 6.484375 -4.21875 L 7 -3.671875 L 6.65625 -3.453125 L 6.65625 -2.21875 C 6.65625 -1.957031 6.671875 -1.585938 6.703125 -1.109375 L 6.140625 -0.8125 L 6.140625 -1.234375 L 4.984375 -1.234375 L 4.984375 -0.6875 Z M 4.984375 -3.578125 L 4.984375 -1.5 L 6.140625 -1.5 L 6.140625 -3.578125 Z M 8.109375 -8.578125 L 8.1875 -8.703125 C 8.957031 -8.421875 9.363281 -8.207031 9.40625 -8.0625 C 9.445312 -7.914062 9.46875 -7.800781 9.46875 -7.71875 C 9.46875 -7.582031 9.425781 -7.460938 9.34375 -7.359375 C 9.257812 -7.253906 9.203125 -7.203125 9.171875 -7.203125 C 9.085938 -7.203125 9.003906 -7.304688 8.921875 -7.515625 C 8.804688 -7.796875 8.535156 -8.148438 8.109375 -8.578125 Z M 8.109375 -8.578125 " />
</g><g id="g3b5b9df9ffe876bff8"><path d="M 7.1875 -6.90625 L 7.4375 -6.703125 L 6.171875 -5.40625 L 6.171875 -1.015625 L 7.40625 0.25 L 7.125 0.421875 L 5.828125 -0.9375 L 5.828125 -5.484375 Z M 7.1875 -6.90625 " />
</g><g id="g3f49ada76469952ca6"><path d="M 3.078125 -0.796875 L 5.09375 -1.25 L 5.125 -1.125 C 3.707031 -0.675781 2.691406 -0.34375 2.078125 -0.125 C 1.460938 0.09375 1.109375 0.273438 1.015625 0.421875 L 0.53125 -0.25 C 1.269531 -0.382812 1.953125 -0.519531 2.578125 -0.65625 L 2.578125 -3.359375 L 1.984375 -3.359375 C 1.679688 -3.359375 1.40625 -3.320312 1.15625 -3.25 L 0.84375 -3.5625 L 3.671875 -3.5625 L 4.125 -4.015625 L 4.78125 -3.359375 L 3.078125 -3.359375 Z M 6.171875 -6.953125 C 6.617188 -6.785156 6.941406 -6.632812 7.140625 -6.5 C 7.335938 -6.375 7.429688 -6.226562 7.421875 -6.0625 C 7.410156 -5.90625 7.367188 -5.789062 7.296875 -5.71875 C 7.222656 -5.65625 7.164062 -5.625 7.125 -5.625 C 7.03125 -5.625 6.945312 -5.71875 6.875 -5.90625 C 6.738281 -6.175781 6.484375 -6.488281 6.109375 -6.84375 Z M 5.40625 -6.671875 C 5.40625 -6.128906 5.421875 -5.660156 5.453125 -5.265625 L 7.046875 -5.265625 L 7.609375 -5.828125 L 8.375 -5.0625 L 5.453125 -5.0625 C 5.546875 -3.875 5.703125 -2.957031 5.921875 -2.3125 C 6.140625 -1.675781 6.394531 -1.179688 6.6875 -0.828125 C 6.976562 -0.484375 7.359375 -0.21875 7.828125 -0.03125 C 7.890625 -0.5 7.96875 -1.054688 8.0625 -1.703125 L 8.234375 -1.703125 C 8.210938 -0.796875 8.226562 -0.195312 8.28125 0.09375 C 8.34375 0.382812 8.421875 0.597656 8.515625 0.734375 C 8.566406 0.804688 8.546875 0.84375 8.453125 0.84375 C 8.359375 0.84375 8.09375 0.765625 7.65625 0.609375 C 7.226562 0.460938 6.816406 0.175781 6.421875 -0.25 C 6.023438 -0.6875 5.695312 -1.289062 5.4375 -2.0625 C 5.1875 -2.832031 5.023438 -3.832031 4.953125 -5.0625 L 1.890625 -5.0625 C 1.585938 -5.0625 1.304688 -5.023438 1.046875 -4.953125 L 0.734375 -5.265625 L 4.921875 -5.265625 C 4.898438 -5.941406 4.878906 -6.617188 4.859375 -7.296875 L 5.71875 -6.90625 Z M 5.40625 -6.671875 " />
</g><g id="g4029f1e70c4c6b236e"><path d="M 15.375 -2.734375 C 15.375 -2.796875 15.328125 -2.84375 15.265625 -2.875 C 14.640625 -3.078125 14.171875 -3.515625 13.765625 -4.015625 C 13.46875 -4.40625 13.234375 -4.875 13.140625 -5.390625 C 13.125 -5.5 13.03125 -5.5625 12.921875 -5.5625 C 12.796875 -5.5625 12.703125 -5.46875 12.703125 -5.359375 C 12.703125 -5.34375 12.71875 -5.3125 12.71875 -5.3125 C 12.828125 -4.734375 13.078125 -4.1875 13.4375 -3.734375 C 13.671875 -3.421875 13.953125 -3.171875 14.28125 -2.953125 L 0.828125 -2.953125 C 0.703125 -2.953125 0.609375 -2.84375 0.609375 -2.734375 C 0.609375 -2.609375 0.703125 -2.515625 0.828125 -2.515625 L 14.28125 -2.515625 C 13.953125 -2.296875 13.671875 -2.03125 13.4375 -1.71875 C 13.078125 -1.265625 12.828125 -0.734375 12.71875 -0.15625 C 12.71875 -0.140625 12.703125 -0.125 12.703125 -0.109375 C 12.703125 0.015625 12.796875 0.109375 12.921875 0.109375 C 13.03125 0.109375 13.125 0.03125 13.140625 -0.0625 C 13.234375 -0.578125 13.46875 -1.0625 13.765625 -1.453125 C 14.171875 -1.9375 14.640625 -2.375 15.265625 -2.59375 C 15.328125 -2.609375 15.375 -2.671875 15.375 -2.734375 Z M 15.375 -2.734375 " />
</g><g id="g474f952788082e5d65"><path d="M 3.28125 -2.171875 C 3.507812 -2.085938 3.664062 -1.925781 3.75 -1.6875 C 3.832031 -1.445312 3.875 -1.269531 3.875 -1.15625 C 3.875 -1.070312 3.847656 -0.921875 3.796875 -0.703125 C 3.742188 -0.492188 3.609375 -0.316406 3.390625 -0.171875 C 3.179688 -0.0234375 2.929688 0.046875 2.640625 0.046875 C 2.359375 0.046875 2.101562 -0.0664062 1.875 -0.296875 C 1.644531 -0.523438 1.523438 -0.773438 1.515625 -1.046875 C 1.503906 -1.316406 1.5625 -1.554688 1.6875 -1.765625 C 1.8125 -1.984375 1.972656 -2.125 2.171875 -2.1875 C 2.367188 -2.257812 2.539062 -2.296875 2.6875 -2.296875 C 2.851562 -2.296875 3.050781 -2.253906 3.28125 -2.171875 Z M 3.234375 -0.484375 C 3.441406 -0.617188 3.535156 -0.847656 3.515625 -1.171875 C 3.503906 -1.492188 3.398438 -1.707031 3.203125 -1.8125 C 3.003906 -1.914062 2.832031 -1.96875 2.6875 -1.96875 C 2.519531 -1.96875 2.34375 -1.898438 2.15625 -1.765625 C 1.96875 -1.640625 1.875 -1.421875 1.875 -1.109375 C 1.875 -0.796875 1.976562 -0.582031 2.1875 -0.46875 C 2.40625 -0.351562 2.570312 -0.296875 2.6875 -0.296875 C 2.851562 -0.296875 3.035156 -0.359375 3.234375 -0.484375 Z M 3.234375 -0.484375 " />
</g><g id="g4af91d49014f4c4063"><path d="M 3.625 2.59375 C 3.625 2.5625 3.609375 2.53125 3.578125 2.515625 C 2.453125 1.65625 1.6875 -0.53125 1.6875 -2.265625 L 1.6875 -3.1875 C 1.6875 -4.9375 2.453125 -7.125 3.578125 -7.96875 C 3.609375 -8 3.625 -8.03125 3.625 -8.0625 C 3.625 -8.109375 3.578125 -8.171875 3.515625 -8.171875 C 3.5 -8.171875 3.46875 -8.15625 3.453125 -8.140625 C 2.25 -7.234375 1.109375 -5.0625 1.109375 -3.1875 L 1.109375 -2.265625 C 1.109375 -0.40625 2.25 1.78125 3.453125 2.6875 C 3.46875 2.703125 3.5 2.703125 3.515625 2.703125 C 3.578125 2.703125 3.625 2.65625 3.625 2.59375 Z M 3.625 2.59375 " />
</g><g id="g58712765af41dfc56c"><path d="M 7.890625 -2.734375 C 7.890625 -2.84375 7.78125 -2.953125 7.671875 -2.953125 L 0.828125 -2.953125 C 0.703125 -2.953125 0.609375 -2.84375 0.609375 -2.734375 C 0.609375 -2.609375 0.703125 -2.515625 0.828125 -2.515625 L 7.671875 -2.515625 C 7.78125 -2.515625 7.890625 -2.609375 7.890625 -2.734375 Z M 7.890625 -2.734375 " />
</g><g id="g587dac9863b7cbc5b5"><path d="M 2.609375 -1.109375 C 2.609375 -0.109375 2.617188 0.554688 2.640625 0.890625 L 2 1.109375 C 2.03125 0.0859375 2.046875 -0.59375 2.046875 -0.9375 L 2.046875 -5.15625 C 1.535156 -4.332031 1.035156 -3.664062 0.546875 -3.15625 L 0.421875 -3.25 C 0.960938 -4.070312 1.445312 -4.992188 1.875 -6.015625 C 2.300781 -7.035156 2.628906 -7.988281 2.859375 -8.875 L 3.75 -8.3125 L 3.328125 -8.0625 C 2.867188 -7.007812 2.570312 -6.300781 2.4375 -5.9375 L 2.9375 -5.625 L 2.609375 -5.375 Z M 4.90625 -5.5 L 4.90625 -4.21875 L 8.1875 -4.21875 L 8.1875 -5.5 Z M 4.90625 -3.96875 L 4.90625 -2.6875 L 8.1875 -2.6875 L 8.1875 -3.96875 Z M 4.90625 -2.4375 L 4.90625 -1.15625 L 8.1875 -1.15625 L 8.1875 -2.4375 Z M 4.90625 -0.890625 L 4.90625 0.390625 L 8.1875 0.390625 L 8.1875 -0.890625 Z M 6.0625 -7.25 C 6.082031 -7.90625 6.082031 -8.460938 6.0625 -8.921875 L 7.046875 -8.453125 L 6.703125 -8.1875 L 6.65625 -7.25 L 8.578125 -7.25 L 9.125 -7.8125 L 9.9375 -7 L 6.65625 -7 L 6.609375 -5.765625 L 8.109375 -5.765625 L 8.484375 -6.1875 L 9.125 -5.625 L 8.75 -5.375 L 8.75 0.390625 L 9.125 0.390625 L 9.6875 -0.171875 L 10.5 0.640625 L 4.1875 0.640625 C 3.8125 0.640625 3.46875 0.679688 3.15625 0.765625 L 2.765625 0.390625 L 4.359375 0.390625 L 4.359375 -4.359375 C 4.359375 -4.691406 4.34375 -5.269531 4.3125 -6.09375 L 4.90625 -5.765625 L 6.015625 -5.765625 L 6.0625 -7 L 4.78125 -7 C 4.40625 -7 4.0625 -6.957031 3.75 -6.875 L 3.375 -7.25 Z M 6.0625 -7.25 " />
</g><g id="g58bc7bb2df7d548b8f"><path d="M 5.828125 -5.234375 C 5.691406 -5.210938 5.566406 -5.132812 5.453125 -5 C 5.585938 -3.988281 5.769531 -3.226562 6 -2.71875 C 6.695312 -3.394531 7.140625 -3.921875 7.328125 -4.296875 L 7.921875 -3.703125 C 7.785156 -3.703125 7.488281 -3.546875 7.03125 -3.234375 C 6.582031 -2.921875 6.265625 -2.679688 6.078125 -2.515625 C 6.285156 -2.023438 6.582031 -1.550781 6.96875 -1.09375 C 7.351562 -0.644531 7.832031 -0.289062 8.40625 -0.03125 L 8.40625 0.109375 C 8.039062 0.078125 7.785156 0.203125 7.640625 0.484375 C 6.753906 -0.273438 6.148438 -1.144531 5.828125 -2.125 C 5.503906 -3.101562 5.332031 -3.988281 5.3125 -4.78125 C 4.914062 -4.195312 4.550781 -3.695312 4.21875 -3.28125 L 4.640625 -3.109375 L 4.40625 -2.859375 L 4.40625 -0.25 C 5.03125 -0.644531 5.503906 -0.96875 5.828125 -1.21875 L 5.90625 -1.078125 C 4.90625 -0.222656 4.34375 0.367188 4.21875 0.703125 L 3.765625 0.171875 C 3.878906 0.078125 3.9375 -0.0703125 3.9375 -0.28125 L 3.9375 -2.890625 C 3.476562 -2.410156 2.96875 -1.984375 2.40625 -1.609375 L 2.34375 -1.703125 C 3.132812 -2.429688 3.757812 -3.171875 4.21875 -3.921875 C 4.6875 -4.679688 4.96875 -5.203125 5.0625 -5.484375 L 3.84375 -5.484375 C 3.539062 -5.484375 3.257812 -5.445312 3 -5.375 L 2.6875 -5.6875 L 5.265625 -5.6875 C 5.242188 -6.082031 5.046875 -6.550781 4.671875 -7.09375 L 4.78125 -7.15625 C 5.15625 -6.925781 5.414062 -6.726562 5.5625 -6.5625 C 5.71875 -6.394531 5.796875 -6.265625 5.796875 -6.171875 C 5.796875 -6.015625 5.703125 -5.851562 5.515625 -5.6875 L 7.1875 -5.6875 L 7.640625 -6.140625 L 8.3125 -5.484375 L 5.453125 -5.484375 Z M 1.75 0.9375 C 1.769531 -0.0078125 1.78125 -0.632812 1.78125 -0.9375 L 1.78125 -4.640625 C 1.34375 -3.847656 0.925781 -3.222656 0.53125 -2.765625 L 0.421875 -2.828125 C 0.890625 -3.617188 1.285156 -4.425781 1.609375 -5.25 C 1.929688 -6.082031 2.140625 -6.742188 2.234375 -7.234375 L 3 -6.84375 C 2.8125 -6.726562 2.644531 -6.523438 2.5 -6.234375 C 2.363281 -5.941406 2.207031 -5.585938 2.03125 -5.171875 L 2.484375 -4.953125 L 2.234375 -4.75 L 2.234375 -0.875 C 2.234375 -0.363281 2.242188 0.171875 2.265625 0.734375 Z M 1.75 0.9375 " />
</g><g id="g599594c5fd32c87956"><path d="M 7.890625 -3.796875 C 7.890625 -3.90625 7.78125 -4.015625 7.671875 -4.015625 L 0.828125 -4.015625 C 0.703125 -4.015625 0.609375 -3.90625 0.609375 -3.796875 C 0.609375 -3.671875 0.703125 -3.578125 0.828125 -3.578125 L 7.671875 -3.578125 C 7.78125 -3.578125 7.890625 -3.671875 7.890625 -3.796875 Z M 7.890625 -1.671875 C 7.890625 -1.796875 7.78125 -1.890625 7.671875 -1.890625 L 0.828125 -1.890625 C 0.703125 -1.890625 0.609375 -1.796875 0.609375 -1.671875 C 0.609375 -1.546875 0.703125 -1.453125 0.828125 -1.453125 L 7.671875 -1.453125 C 7.78125 -1.453125 7.890625 -1.546875 7.890625 -1.671875 Z M 7.890625 -1.671875 " />
</g><g id="g60f0e3744ec6008f66"><path d="M 5.25 -4.8125 C 5.25 -4.921875 5.171875 -4.984375 5.09375 -5.03125 C 4.609375 -5.171875 4.171875 -5.421875 3.828125 -5.765625 C 3.390625 -6.1875 3.015625 -6.6875 2.875 -7.3125 C 2.859375 -7.375 2.796875 -7.421875 2.734375 -7.421875 C 2.671875 -7.421875 2.59375 -7.375 2.59375 -7.3125 C 2.453125 -6.6875 2.078125 -6.1875 1.640625 -5.765625 C 1.28125 -5.421875 0.859375 -5.171875 0.375 -5.03125 C 0.28125 -4.984375 0.21875 -4.921875 0.21875 -4.8125 C 0.21875 -4.703125 0.3125 -4.59375 0.4375 -4.59375 C 0.453125 -4.59375 0.484375 -4.59375 0.5 -4.609375 C 1.046875 -4.765625 1.546875 -5.0625 1.9375 -5.453125 C 2.15625 -5.671875 2.34375 -5.90625 2.515625 -6.15625 L 2.515625 2 C 2.515625 2.125 2.609375 2.21875 2.734375 2.21875 C 2.84375 2.21875 2.953125 2.125 2.953125 2 L 2.953125 -6.15625 C 3.109375 -5.90625 3.296875 -5.671875 3.515625 -5.453125 C 3.921875 -5.0625 4.40625 -4.765625 4.953125 -4.609375 C 4.984375 -4.59375 5 -4.59375 5.03125 -4.59375 C 5.140625 -4.59375 5.25 -4.703125 5.25 -4.8125 Z M 5.25 -4.8125 " />
</g><g id="g6989a21a93d5a4b219"><path d="M 4.4375 -4.890625 L 4.4375 -3.5625 L 6.875 -3.5625 L 6.875 -4.890625 Z M 3.84375 0.171875 C 3.9375 0.0351562 3.984375 -0.125 3.984375 -0.3125 C 3.984375 -4.40625 3.96875 -6.617188 3.9375 -6.953125 L 4.4375 -6.640625 L 6.84375 -6.640625 L 7.125 -7.015625 L 7.6875 -6.53125 L 7.359375 -6.3125 C 7.359375 -4.875 7.375 -3.863281 7.40625 -3.28125 L 6.875 -3.03125 L 6.875 -3.359375 L 5.34375 -3.359375 C 5.457031 -2.816406 5.675781 -2.253906 6 -1.671875 C 6.601562 -2.117188 7.101562 -2.597656 7.5 -3.109375 L 8.0625 -2.484375 C 7.738281 -2.484375 7.085938 -2.15625 6.109375 -1.5 C 6.523438 -0.96875 6.957031 -0.601562 7.40625 -0.40625 C 7.863281 -0.207031 8.210938 -0.09375 8.453125 -0.0625 L 8.453125 0.0625 C 8.117188 0.09375 7.875 0.257812 7.71875 0.5625 C 7.15625 0.28125 6.625 -0.171875 6.125 -0.796875 C 5.625 -1.429688 5.289062 -2.285156 5.125 -3.359375 L 4.4375 -3.359375 L 4.4375 -0.171875 L 5.765625 -0.796875 L 5.828125 -0.703125 C 5.085938 -0.234375 4.578125 0.242188 4.296875 0.734375 Z M 2.125 -4.296875 L 2.6875 -6.453125 L 1.46875 -6.453125 L 1.46875 -1.015625 C 1.46875 -0.378906 1.476562 0.175781 1.5 0.65625 L 0.984375 0.875 C 1.003906 0.289062 1.015625 -1.050781 1.015625 -3.15625 C 1.015625 -5.257812 1.003906 -6.523438 0.984375 -6.953125 L 1.5 -6.671875 L 2.6875 -6.671875 L 3 -6.984375 L 3.453125 -6.53125 L 3.171875 -6.359375 L 2.296875 -4.296875 C 2.628906 -3.941406 2.878906 -3.617188 3.046875 -3.328125 C 3.222656 -3.035156 3.328125 -2.710938 3.359375 -2.359375 C 3.398438 -2.015625 3.347656 -1.722656 3.203125 -1.484375 C 3.066406 -1.242188 2.78125 -1.0625 2.34375 -0.9375 C 2.363281 -1.21875 2.117188 -1.460938 1.609375 -1.671875 L 1.609375 -1.8125 C 1.953125 -1.738281 2.195312 -1.703125 2.34375 -1.703125 C 2.570312 -1.703125 2.71875 -1.753906 2.78125 -1.859375 C 2.851562 -1.972656 2.890625 -2.117188 2.890625 -2.296875 C 2.890625 -2.460938 2.867188 -2.6875 2.828125 -2.96875 C 2.785156 -3.25 2.550781 -3.691406 2.125 -4.296875 Z M 4.4375 -6.421875 L 4.4375 -5.09375 L 6.875 -5.09375 L 6.875 -6.421875 Z M 4.4375 -6.421875 " />
</g><g id="g6bdb6a1ea40d451141"><path d="M 1.890625 -0.0625 C 1.722656 -0.0625 1.585938 -0.078125 1.484375 -0.109375 C 1.378906 -0.148438 1.300781 -0.21875 1.25 -0.3125 C 1.207031 -0.40625 1.191406 -0.503906 1.203125 -0.609375 C 1.210938 -0.710938 1.242188 -0.800781 1.296875 -0.875 C 1.359375 -0.945312 1.429688 -1 1.515625 -1.03125 C 1.597656 -1.0625 1.660156 -1.078125 1.703125 -1.078125 C 1.773438 -1.078125 1.863281 -1.0625 1.96875 -1.03125 C 2.070312 -1 2.160156 -0.914062 2.234375 -0.78125 C 2.304688 -0.65625 2.34375 -0.535156 2.34375 -0.421875 C 2.34375 -0.304688 2.3125 -0.148438 2.25 0.046875 C 2.195312 0.242188 2.085938 0.40625 1.921875 0.53125 C 1.753906 0.664062 1.609375 0.742188 1.484375 0.765625 C 1.359375 0.785156 1.296875 0.785156 1.296875 0.765625 C 1.296875 0.742188 1.328125 0.722656 1.390625 0.703125 C 1.515625 0.609375 1.613281 0.507812 1.6875 0.40625 C 1.769531 0.300781 1.835938 0.144531 1.890625 -0.0625 Z M 2.109375 -3.0625 C 2.265625 -3.019531 2.347656 -2.863281 2.359375 -2.59375 C 2.367188 -2.332031 2.289062 -2.160156 2.125 -2.078125 C 1.96875 -1.992188 1.84375 -1.953125 1.75 -1.953125 C 1.65625 -1.953125 1.523438 -2 1.359375 -2.09375 C 1.203125 -2.1875 1.128906 -2.34375 1.140625 -2.5625 C 1.148438 -2.78125 1.222656 -2.929688 1.359375 -3.015625 C 1.503906 -3.097656 1.632812 -3.140625 1.75 -3.140625 C 1.84375 -3.140625 1.960938 -3.113281 2.109375 -3.0625 Z M 2.109375 -3.0625 " />
</g><g id="g70e8edf11b86592df5"><path d="M 2.515625 -1.796875 C 3.085938 -2.078125 4.082031 -2.71875 5.5 -3.71875 L 5.625 -3.578125 C 4.519531 -2.617188 3.753906 -1.953125 3.328125 -1.578125 C 2.898438 -1.210938 2.554688 -0.84375 2.296875 -0.46875 L 1.65625 -1.234375 C 1.800781 -1.410156 1.875 -1.65625 1.875 -1.96875 L 1.875 -6.1875 C 1.875 -7.039062 1.859375 -7.75 1.828125 -8.3125 L 2.90625 -7.8125 L 2.515625 -7.46875 Z M 4.21875 -7.71875 C 5.332031 -6.945312 5.890625 -6.398438 5.890625 -6.078125 C 5.890625 -5.753906 5.820312 -5.519531 5.6875 -5.375 C 5.5625 -5.226562 5.472656 -5.15625 5.421875 -5.15625 C 5.304688 -5.15625 5.207031 -5.34375 5.125 -5.71875 C 4.976562 -6.226562 4.632812 -6.851562 4.09375 -7.59375 Z M 7.8125 -8.703125 L 8.875 -8.234375 L 8.53125 -7.9375 C 8.5 -6.3125 8.445312 -5.125 8.375 -4.375 C 8.3125 -3.625 8.164062 -2.945312 7.9375 -2.34375 C 8.59375 -1.882812 9.085938 -1.515625 9.421875 -1.234375 C 9.765625 -0.953125 9.9375 -0.660156 9.9375 -0.359375 C 9.9375 -0.0664062 9.882812 0.132812 9.78125 0.25 C 9.6875 0.363281 9.625 0.421875 9.59375 0.421875 C 9.476562 0.421875 9.351562 0.222656 9.21875 -0.171875 C 9.019531 -0.648438 8.5625 -1.304688 7.84375 -2.140625 C 7.3125 -1.222656 6.566406 -0.53125 5.609375 -0.0625 C 4.660156 0.40625 3.554688 0.738281 2.296875 0.9375 L 2.21875 0.765625 C 3.007812 0.597656 3.734375 0.367188 4.390625 0.078125 C 5.046875 -0.203125 5.65625 -0.585938 6.21875 -1.078125 C 6.789062 -1.578125 7.210938 -2.253906 7.484375 -3.109375 C 7.753906 -3.960938 7.863281 -5.828125 7.8125 -8.703125 Z M 7.8125 -8.703125 " />
</g><g id="g7228247f6e82a92b13"><path d="M 7.15625 -3.734375 L 7.609375 -4.578125 L 4.5 -4.578125 C 4.195312 -4.578125 3.921875 -4.539062 3.671875 -4.46875 L 3.359375 -4.78125 L 5.40625 -4.78125 L 5.40625 -5.765625 L 4.859375 -5.765625 C 4.554688 -5.765625 4.273438 -5.726562 4.015625 -5.65625 L 3.703125 -5.96875 L 5.40625 -5.96875 L 5.40625 -6.59375 C 5.40625 -6.800781 5.394531 -7.035156 5.375 -7.296875 L 6.140625 -6.953125 L 5.859375 -6.703125 L 5.859375 -5.96875 L 6.90625 -5.96875 L 7.328125 -6.390625 L 7.921875 -5.765625 L 5.859375 -5.765625 L 5.859375 -4.78125 L 7.546875 -4.78125 L 7.828125 -5.125 L 8.484375 -4.46875 C 8.128906 -4.46875 7.722656 -4.203125 7.265625 -3.671875 Z M 4.046875 -4.15625 C 4.585938 -4.039062 4.894531 -3.9375 4.96875 -3.84375 C 5.050781 -3.75 5.09375 -3.644531 5.09375 -3.53125 C 5.09375 -3.414062 5.082031 -3.316406 5.0625 -3.234375 C 5.039062 -3.148438 5.019531 -3.109375 5 -3.109375 C 4.925781 -3.109375 4.84375 -3.191406 4.75 -3.359375 C 4.5625 -3.585938 4.304688 -3.816406 3.984375 -4.046875 Z M 3.53125 -3.25 C 4.175781 -3.0625 4.519531 -2.914062 4.5625 -2.8125 C 4.613281 -2.707031 4.640625 -2.597656 4.640625 -2.484375 C 4.640625 -2.390625 4.617188 -2.300781 4.578125 -2.21875 C 4.546875 -2.132812 4.507812 -2.09375 4.46875 -2.09375 C 4.425781 -2.09375 4.359375 -2.160156 4.265625 -2.296875 C 4.117188 -2.535156 3.847656 -2.816406 3.453125 -3.140625 Z M 5.515625 -1.890625 C 5.585938 -2.742188 5.597656 -3.582031 5.546875 -4.40625 L 6.28125 -4.046875 C 6.144531 -3.910156 6.078125 -3.679688 6.078125 -3.359375 C 6.054688 -3.003906 6.019531 -2.515625 5.96875 -1.890625 L 7.40625 -1.890625 L 7.859375 -2.375 L 8.484375 -1.671875 L 5.96875 -1.671875 C 5.925781 -1.441406 5.867188 -1.210938 5.796875 -0.984375 C 6.910156 -0.609375 7.546875 -0.34375 7.703125 -0.1875 C 7.867188 -0.0390625 7.953125 0.132812 7.953125 0.34375 C 7.953125 0.414062 7.941406 0.503906 7.921875 0.609375 C 7.898438 0.710938 7.867188 0.765625 7.828125 0.765625 C 7.753906 0.765625 7.625 0.648438 7.4375 0.421875 C 7.15625 0.0664062 6.582031 -0.351562 5.71875 -0.84375 C 5.488281 -0.414062 5.148438 -0.0703125 4.703125 0.1875 C 4.265625 0.457031 3.59375 0.6875 2.6875 0.875 L 2.65625 0.734375 C 3.582031 0.429688 4.257812 0.101562 4.6875 -0.25 C 5.125 -0.613281 5.390625 -1.085938 5.484375 -1.671875 L 4.1875 -1.671875 C 3.882812 -1.671875 3.609375 -1.640625 3.359375 -1.578125 L 3.03125 -1.890625 Z M 1.890625 -7.125 L 2.578125 -6.734375 C 2.347656 -6.578125 2.117188 -6.273438 1.890625 -5.828125 C 1.648438 -5.359375 1.347656 -4.820312 0.984375 -4.21875 L 2.375 -4.328125 C 2.582031 -4.703125 2.753906 -5.132812 2.890625 -5.625 L 3.53125 -5.203125 C 3.320312 -5.035156 3.066406 -4.707031 2.765625 -4.21875 C 2.453125 -3.707031 1.984375 -3.035156 1.359375 -2.203125 C 1.847656 -2.265625 2.515625 -2.367188 3.359375 -2.515625 L 3.390625 -2.375 C 2.898438 -2.257812 2.4375 -2.132812 2 -2 C 1.570312 -1.875 1.253906 -1.71875 1.046875 -1.53125 L 0.65625 -2.171875 C 0.84375 -2.210938 1.050781 -2.375 1.28125 -2.65625 C 1.519531 -2.9375 1.859375 -3.4375 2.296875 -4.15625 C 1.835938 -4.0625 1.515625 -3.976562 1.328125 -3.90625 C 1.140625 -3.84375 0.960938 -3.75 0.796875 -3.625 L 0.453125 -4.265625 C 0.660156 -4.265625 0.925781 -4.625 1.25 -5.34375 C 1.582031 -6.0625 1.796875 -6.65625 1.890625 -7.125 Z M 0.484375 -0.34375 C 0.953125 -0.414062 1.40625 -0.5 1.84375 -0.59375 C 2.289062 -0.6875 2.816406 -0.800781 3.421875 -0.9375 L 3.453125 -0.796875 C 2.867188 -0.617188 2.328125 -0.4375 1.828125 -0.25 C 1.328125 -0.0625 1.007812 0.101562 0.875 0.25 Z M 0.484375 -0.34375 " />
</g><g id="g7b26853da16bdcbbd7"><path d="M 3.796875 -5.15625 L 3.796875 -3.671875 L 7.71875 -3.671875 L 7.71875 -5.15625 Z M 3.796875 -3.40625 L 3.796875 -2 L 7.71875 -2 L 7.71875 -3.40625 Z M 6.234375 0 C 6.710938 0.0820312 7.078125 0.125 7.328125 0.125 C 7.585938 0.125 7.71875 0 7.71875 -0.25 L 7.71875 -1.75 L 3.796875 -1.75 L 3.796875 0.6875 L 3.15625 1.0625 C 3.1875 0.582031 3.203125 -1.265625 3.203125 -4.484375 C 2.398438 -3.628906 1.53125 -2.914062 0.59375 -2.34375 L 0.46875 -2.46875 C 1.257812 -3.09375 1.945312 -3.738281 2.53125 -4.40625 C 3.113281 -5.082031 3.675781 -5.929688 4.21875 -6.953125 L 1.875 -6.953125 C 1.507812 -6.953125 1.171875 -6.910156 0.859375 -6.828125 L 0.46875 -7.203125 L 4.3125 -7.203125 C 4.625 -7.921875 4.820312 -8.503906 4.90625 -8.953125 L 5.96875 -8.359375 L 5.546875 -8.1875 C 5.347656 -7.789062 5.175781 -7.460938 5.03125 -7.203125 L 8.65625 -7.203125 L 9.390625 -7.9375 L 10.375 -6.953125 L 4.953125 -6.953125 C 4.640625 -6.378906 4.3125 -5.867188 3.96875 -5.421875 L 7.640625 -5.421875 L 7.984375 -5.84375 L 8.703125 -5.296875 L 8.3125 -4.984375 L 8.3125 0.046875 C 8.3125 0.492188 8 0.832031 7.375 1.0625 C 7.40625 0.71875 7.023438 0.4375 6.234375 0.21875 Z M 6.234375 0 " />
</g><g id="g7f9c2accc4d0c8cf52"><path d="M 8.75 -4.5625 L 9.296875 -5.59375 L 5.5 -5.59375 C 5.132812 -5.59375 4.796875 -5.550781 4.484375 -5.46875 L 4.09375 -5.84375 L 6.609375 -5.84375 L 6.609375 -7.046875 L 5.9375 -7.046875 C 5.5625 -7.046875 5.21875 -7 4.90625 -6.90625 L 4.515625 -7.296875 L 6.609375 -7.296875 L 6.609375 -8.0625 C 6.609375 -8.320312 6.59375 -8.609375 6.5625 -8.921875 L 7.515625 -8.484375 L 7.171875 -8.1875 L 7.171875 -7.296875 L 8.453125 -7.296875 L 8.953125 -7.8125 L 9.6875 -7.046875 L 7.171875 -7.046875 L 7.171875 -5.84375 L 9.21875 -5.84375 L 9.5625 -6.265625 L 10.375 -5.46875 C 9.945312 -5.46875 9.445312 -5.140625 8.875 -4.484375 Z M 4.953125 -5.078125 C 5.609375 -4.929688 5.984375 -4.800781 6.078125 -4.6875 C 6.179688 -4.570312 6.234375 -4.445312 6.234375 -4.3125 C 6.234375 -4.164062 6.21875 -4.039062 6.1875 -3.9375 C 6.15625 -3.84375 6.125 -3.796875 6.09375 -3.796875 C 6.007812 -3.796875 5.910156 -3.894531 5.796875 -4.09375 C 5.578125 -4.375 5.265625 -4.660156 4.859375 -4.953125 Z M 4.3125 -3.96875 C 5.101562 -3.738281 5.523438 -3.5625 5.578125 -3.4375 C 5.640625 -3.3125 5.671875 -3.175781 5.671875 -3.03125 C 5.671875 -2.914062 5.648438 -2.804688 5.609375 -2.703125 C 5.566406 -2.609375 5.519531 -2.5625 5.46875 -2.5625 C 5.40625 -2.5625 5.316406 -2.644531 5.203125 -2.8125 C 5.035156 -3.101562 4.707031 -3.445312 4.21875 -3.84375 Z M 6.734375 -2.296875 C 6.828125 -3.347656 6.84375 -4.375 6.78125 -5.375 L 7.671875 -4.953125 C 7.503906 -4.773438 7.421875 -4.488281 7.421875 -4.09375 C 7.390625 -3.664062 7.347656 -3.066406 7.296875 -2.296875 L 9.046875 -2.296875 L 9.59375 -2.90625 L 10.375 -2.046875 L 7.296875 -2.046875 C 7.234375 -1.765625 7.160156 -1.476562 7.078125 -1.1875 C 8.441406 -0.738281 9.222656 -0.421875 9.421875 -0.234375 C 9.628906 -0.046875 9.734375 0.171875 9.734375 0.421875 C 9.734375 0.503906 9.71875 0.609375 9.6875 0.734375 C 9.65625 0.867188 9.613281 0.9375 9.5625 0.9375 C 9.46875 0.9375 9.3125 0.796875 9.09375 0.515625 C 8.75 0.0859375 8.050781 -0.425781 7 -1.03125 C 6.707031 -0.507812 6.289062 -0.0859375 5.75 0.234375 C 5.21875 0.554688 4.394531 0.832031 3.28125 1.0625 L 3.25 0.890625 C 4.382812 0.523438 5.210938 0.125 5.734375 -0.3125 C 6.265625 -0.757812 6.585938 -1.335938 6.703125 -2.046875 L 5.125 -2.046875 C 4.75 -2.046875 4.40625 -2.003906 4.09375 -1.921875 L 3.71875 -2.296875 Z M 2.296875 -8.703125 L 3.15625 -8.234375 C 2.875 -8.035156 2.585938 -7.664062 2.296875 -7.125 C 2.015625 -6.550781 1.644531 -5.894531 1.1875 -5.15625 L 2.90625 -5.296875 C 3.15625 -5.742188 3.367188 -6.269531 3.546875 -6.875 L 4.3125 -6.359375 C 4.050781 -6.160156 3.738281 -5.757812 3.375 -5.15625 C 3 -4.53125 2.425781 -3.707031 1.65625 -2.6875 C 2.257812 -2.769531 3.070312 -2.898438 4.09375 -3.078125 L 4.140625 -2.90625 C 3.546875 -2.757812 2.984375 -2.609375 2.453125 -2.453125 C 1.921875 -2.296875 1.53125 -2.101562 1.28125 -1.875 L 0.8125 -2.640625 C 1.039062 -2.703125 1.296875 -2.898438 1.578125 -3.234375 C 1.859375 -3.578125 2.269531 -4.191406 2.8125 -5.078125 C 2.25 -4.960938 1.851562 -4.863281 1.625 -4.78125 C 1.394531 -4.695312 1.179688 -4.582031 0.984375 -4.4375 L 0.546875 -5.203125 C 0.804688 -5.203125 1.132812 -5.640625 1.53125 -6.515625 C 1.9375 -7.398438 2.191406 -8.128906 2.296875 -8.703125 Z M 0.59375 -0.421875 C 1.164062 -0.503906 1.722656 -0.601562 2.265625 -0.71875 C 2.804688 -0.832031 3.445312 -0.976562 4.1875 -1.15625 L 4.21875 -0.984375 C 3.507812 -0.753906 2.847656 -0.523438 2.234375 -0.296875 C 1.628906 -0.0664062 1.238281 0.128906 1.0625 0.296875 Z M 0.59375 -0.421875 " />
</g><g id="g8922ab85091cf65321"><path d="M 2.6875 -1.78125 C 2.875 -1.707031 3 -1.570312 3.0625 -1.375 C 3.132812 -1.175781 3.171875 -1.03125 3.171875 -0.9375 C 3.171875 -0.875 3.144531 -0.753906 3.09375 -0.578125 C 3.050781 -0.398438 2.941406 -0.253906 2.765625 -0.140625 C 2.597656 -0.0234375 2.394531 0.03125 2.15625 0.03125 C 1.925781 0.03125 1.71875 -0.0625 1.53125 -0.25 C 1.34375 -0.4375 1.242188 -0.640625 1.234375 -0.859375 C 1.222656 -1.078125 1.269531 -1.269531 1.375 -1.4375 C 1.476562 -1.613281 1.613281 -1.734375 1.78125 -1.796875 C 1.945312 -1.859375 2.085938 -1.890625 2.203125 -1.890625 C 2.335938 -1.890625 2.5 -1.851562 2.6875 -1.78125 Z M 2.640625 -0.40625 C 2.804688 -0.507812 2.882812 -0.691406 2.875 -0.953125 C 2.863281 -1.222656 2.773438 -1.398438 2.609375 -1.484375 C 2.453125 -1.566406 2.316406 -1.609375 2.203125 -1.609375 C 2.054688 -1.609375 1.90625 -1.554688 1.75 -1.453125 C 1.601562 -1.347656 1.53125 -1.164062 1.53125 -0.90625 C 1.53125 -0.65625 1.617188 -0.484375 1.796875 -0.390625 C 1.972656 -0.296875 2.109375 -0.25 2.203125 -0.25 C 2.335938 -0.25 2.484375 -0.300781 2.640625 -0.40625 Z M 2.640625 -0.40625 " />
</g><g id="g89bddbb2ed3abd42e4"><path d="M 4.328125 -7.234375 C 5.003906 -6.859375 5.335938 -6.570312 5.328125 -6.375 C 5.316406 -6.175781 5.273438 -6.039062 5.203125 -5.96875 C 5.128906 -5.894531 5.070312 -5.859375 5.03125 -5.859375 C 4.957031 -5.859375 4.882812 -5.960938 4.8125 -6.171875 C 4.71875 -6.453125 4.519531 -6.78125 4.21875 -7.15625 Z M 4.21875 -5.09375 C 4.6875 -4.8125 4.960938 -4.601562 5.046875 -4.46875 C 5.128906 -4.332031 5.171875 -4.226562 5.171875 -4.15625 C 5.171875 -4.007812 5.125 -3.878906 5.03125 -3.765625 C 4.9375 -3.648438 4.863281 -3.59375 4.8125 -3.59375 C 4.75 -3.59375 4.703125 -3.6875 4.671875 -3.875 C 4.609375 -4.175781 4.4375 -4.5625 4.15625 -5.03125 Z M 6.875 -5.125 L 7.4375 -4.671875 C 7.207031 -4.554688 6.820312 -4.175781 6.28125 -3.53125 L 6.171875 -3.59375 C 6.503906 -4.15625 6.738281 -4.664062 6.875 -5.125 Z M 4.4375 -2.0625 L 4.4375 -1.15625 L 7.046875 -1.15625 L 7.046875 -2.0625 Z M 4.4375 -0.9375 L 4.4375 0 L 7.046875 0 L 7.046875 -0.9375 Z M 3.53125 -6.046875 L 3.984375 -5.71875 L 6.046875 -5.71875 C 6.441406 -6.351562 6.707031 -6.878906 6.84375 -7.296875 L 7.4375 -6.8125 C 7.207031 -6.738281 6.8125 -6.375 6.25 -5.71875 L 7.46875 -5.71875 L 7.71875 -6.046875 L 8.203125 -5.625 L 7.953125 -5.40625 L 7.953125 -3.703125 C 7.953125 -3.515625 7.96875 -3.222656 8 -2.828125 L 7.546875 -2.65625 L 7.546875 -3 L 3.984375 -3 L 3.984375 -2.796875 L 3.53125 -2.625 C 3.550781 -3.15625 3.5625 -3.738281 3.5625 -4.375 C 3.5625 -5.019531 3.550781 -5.578125 3.53125 -6.046875 Z M 3.984375 -5.515625 L 3.984375 -3.21875 L 5.515625 -3.21875 L 5.515625 -5.515625 Z M 5.9375 -5.515625 L 5.9375 -3.21875 L 7.546875 -3.21875 L 7.546875 -5.515625 Z M 3.9375 -2.546875 L 4.4375 -2.265625 L 6.984375 -2.265625 L 7.234375 -2.625 L 7.75 -2.203125 L 7.5 -1.953125 L 7.5 -0.65625 C 7.5 -0.351562 7.515625 0.0507812 7.546875 0.5625 L 7.046875 0.765625 L 7.046875 0.203125 L 4.4375 0.203125 L 4.4375 0.625 L 3.9375 0.84375 C 3.96875 0.28125 3.984375 -0.296875 3.984375 -0.890625 C 3.984375 -1.484375 3.96875 -2.035156 3.9375 -2.546875 Z M 1.671875 -7.15625 L 2.4375 -6.8125 L 2.171875 -6.5625 L 2.171875 -4.78125 L 2.4375 -4.78125 L 2.828125 -5.171875 L 3.421875 -4.578125 L 2.171875 -4.578125 L 2.171875 -1.609375 L 3.421875 -1.984375 L 3.453125 -1.84375 C 1.828125 -1.175781 0.941406 -0.710938 0.796875 -0.453125 L 0.390625 -1.078125 C 0.710938 -1.148438 1.148438 -1.28125 1.703125 -1.46875 L 1.703125 -4.578125 L 1.53125 -4.578125 C 1.226562 -4.578125 0.953125 -4.539062 0.703125 -4.46875 L 0.390625 -4.78125 L 1.703125 -4.78125 L 1.703125 -5.9375 C 1.703125 -6.3125 1.691406 -6.71875 1.671875 -7.15625 Z M 1.671875 -7.15625 " />
</g><g id="g8bcbc09aed570bf65f"><path d="M 5.03125 -1.09375 C 5.03125 -1.1875 4.921875 -1.1875 4.90625 -1.1875 C 4.796875 -1.1875 4.796875 -1.140625 4.765625 -1.0625 C 4.578125 -0.453125 4.25 -0.140625 3.953125 -0.140625 C 3.796875 -0.140625 3.765625 -0.25 3.765625 -0.40625 C 3.765625 -0.578125 3.796875 -0.6875 3.9375 -1.03125 C 4.03125 -1.265625 4.34375 -2.078125 4.34375 -2.5 C 4.34375 -3.234375 3.75 -3.375 3.34375 -3.375 C 2.71875 -3.375 2.28125 -2.984375 2.0625 -2.671875 C 2 -3.203125 1.546875 -3.375 1.234375 -3.375 C 0.90625 -3.375 0.734375 -3.125 0.640625 -2.953125 C 0.46875 -2.671875 0.359375 -2.234375 0.359375 -2.203125 C 0.359375 -2.09375 0.46875 -2.09375 0.484375 -2.09375 C 0.59375 -2.09375 0.609375 -2.125 0.65625 -2.328125 C 0.765625 -2.78125 0.921875 -3.15625 1.21875 -3.15625 C 1.40625 -3.15625 1.46875 -2.984375 1.46875 -2.78125 C 1.46875 -2.640625 1.390625 -2.359375 1.34375 -2.140625 L 1.171875 -1.453125 L 0.9375 -0.484375 C 0.90625 -0.375 0.859375 -0.1875 0.859375 -0.171875 C 0.859375 0 1 0.078125 1.109375 0.078125 C 1.25 0.078125 1.375 -0.015625 1.40625 -0.09375 C 1.453125 -0.15625 1.515625 -0.40625 1.546875 -0.5625 L 1.71875 -1.25 C 1.765625 -1.421875 1.8125 -1.59375 1.84375 -1.765625 C 1.9375 -2.078125 1.953125 -2.140625 2.171875 -2.453125 C 2.390625 -2.765625 2.75 -3.15625 3.3125 -3.15625 C 3.765625 -3.15625 3.765625 -2.765625 3.765625 -2.625 C 3.765625 -2.15625 3.4375 -1.3125 3.3125 -1 C 3.234375 -0.78125 3.203125 -0.703125 3.203125 -0.578125 C 3.203125 -0.171875 3.53125 0.078125 3.921875 0.078125 C 4.6875 0.078125 5.03125 -0.984375 5.03125 -1.09375 Z M 5.03125 -1.09375 " />
</g><g id="g8f58d3e4e437032ffc"><path d="M 6.265625 0 C 6.953125 0.0820312 7.410156 0.109375 7.640625 0.078125 C 7.867188 0.0546875 7.96875 -0.109375 7.9375 -0.421875 L 7.9375 -2.046875 L 2.90625 -2.046875 L 2.90625 0.765625 L 2.265625 1.0625 C 2.285156 0.382812 2.296875 -0.0664062 2.296875 -0.296875 L 2.296875 -2.046875 L 1.921875 -2.046875 C 1.546875 -2.046875 1.203125 -2.003906 0.890625 -1.921875 L 0.515625 -2.296875 L 2.296875 -2.296875 L 2.296875 -4.6875 C 2.296875 -5.3125 2.285156 -5.992188 2.265625 -6.734375 L 2.90625 -6.40625 L 5.125 -6.40625 L 5.125 -7.84375 L 2.515625 -7.84375 C 2.148438 -7.84375 1.8125 -7.800781 1.5 -7.71875 L 1.109375 -8.109375 L 8.3125 -8.109375 L 8.953125 -8.75 L 9.859375 -7.84375 L 5.671875 -7.84375 L 5.671875 -6.40625 L 7.890625 -6.40625 L 8.234375 -6.828125 L 8.921875 -6.3125 L 8.53125 -6.015625 L 8.53125 -2.296875 L 8.921875 -2.296875 L 9.5625 -2.9375 L 10.453125 -2.046875 L 8.53125 -2.046875 L 8.53125 0 C 8.5625 0.507812 8.25 0.863281 7.59375 1.0625 C 7.625 0.75 7.179688 0.46875 6.265625 0.21875 Z M 2.90625 -6.140625 L 2.90625 -4.390625 L 5.125 -4.390625 L 5.125 -6.140625 Z M 5.671875 -6.140625 L 5.671875 -4.390625 L 7.9375 -4.390625 L 7.9375 -6.140625 Z M 2.90625 -4.140625 L 2.90625 -2.296875 L 5.125 -2.296875 L 5.125 -4.140625 Z M 5.671875 -4.140625 L 5.671875 -2.296875 L 7.9375 -2.296875 L 7.9375 -4.140625 Z M 5.671875 -4.140625 " />
</g><g id="g9a4c6c65c2f18e3138"><path d="M 5.15625 -6.4375 C 5.15625 -7.664062 5.144531 -8.492188 5.125 -8.921875 L 6.09375 -8.484375 L 5.765625 -8.15625 L 5.765625 -6.484375 L 7.71875 -6.484375 L 8.3125 -7.078125 L 9.171875 -6.234375 L 5.765625 -6.234375 L 5.765625 -3.921875 L 8.75 -3.921875 L 9.34375 -4.515625 L 10.203125 -3.671875 L 6.703125 -3.671875 L 6.703125 -0.765625 C 6.640625 -0.109375 6.921875 0.203125 7.546875 0.171875 L 9.046875 0.171875 C 9.242188 0.171875 9.363281 -0.00390625 9.40625 -0.359375 C 9.445312 -0.710938 9.484375 -1.234375 9.515625 -1.921875 L 9.734375 -1.921875 C 9.734375 -1.460938 9.753906 -1.054688 9.796875 -0.703125 C 9.835938 -0.347656 10.015625 -0.113281 10.328125 0 C 10.148438 0.457031 9.75 0.6875 9.125 0.6875 L 7.078125 0.6875 C 6.398438 0.65625 6.070312 0.285156 6.09375 -0.421875 L 6.09375 -3.671875 L 4.5625 -3.671875 C 4.476562 -2.472656 4.1875 -1.492188 3.6875 -0.734375 C 3.1875 0.015625 2.1875 0.628906 0.6875 1.109375 L 0.640625 0.984375 C 2.003906 0.296875 2.867188 -0.382812 3.234375 -1.0625 C 3.609375 -1.75 3.835938 -2.617188 3.921875 -3.671875 L 2.046875 -3.671875 C 1.679688 -3.671875 1.34375 -3.628906 1.03125 -3.546875 L 0.640625 -3.921875 L 5.15625 -3.921875 L 5.15625 -6.1875 L 2.859375 -6.1875 C 2.429688 -5.5 1.945312 -4.890625 1.40625 -4.359375 L 1.28125 -4.4375 C 2.019531 -5.519531 2.53125 -6.757812 2.8125 -8.15625 L 3.75 -7.59375 L 3.40625 -7.421875 C 3.269531 -7.109375 3.113281 -6.78125 2.9375 -6.4375 Z M 5.15625 -6.4375 " />
</g><g id="g9ac128dfcada4634f7"><path d="M 3.453125 -3.90625 C 3.773438 -4.375 4.101562 -4.957031 4.4375 -5.65625 L 3.734375 -5.65625 C 3.503906 -5.65625 3.257812 -5.617188 3 -5.546875 L 2.6875 -5.859375 L 4.5 -5.859375 C 4.738281 -6.378906 4.925781 -6.878906 5.0625 -7.359375 L 5.796875 -6.875 L 5.453125 -6.703125 L 5.03125 -5.859375 L 7.046875 -5.859375 L 7.578125 -6.359375 L 8.203125 -5.65625 L 4.953125 -5.65625 L 3.9375 -3.734375 L 5.3125 -3.734375 C 5.3125 -4.148438 5.296875 -4.601562 5.265625 -5.09375 L 6.140625 -4.78125 L 5.765625 -4.5 L 5.765625 -3.734375 L 6.703125 -3.734375 L 7.15625 -4.1875 L 7.78125 -3.53125 L 5.765625 -3.53125 L 5.765625 -2.203125 L 7.328125 -2.203125 L 7.859375 -2.6875 L 8.484375 -1.984375 L 5.765625 -1.984375 C 5.765625 -1.429688 5.773438 -0.910156 5.796875 -0.421875 L 5.265625 -0.203125 C 5.296875 -0.785156 5.3125 -1.378906 5.3125 -1.984375 L 3.671875 -1.984375 C 3.460938 -1.984375 3.226562 -1.953125 2.96875 -1.890625 L 2.65625 -2.203125 L 5.3125 -2.203125 L 5.3125 -3.53125 L 3.9375 -3.53125 L 3.59375 -3.21875 L 3.109375 -3.765625 Z M 1.015625 -6.90625 L 1.125 -6.984375 C 1.539062 -6.722656 1.820312 -6.503906 1.96875 -6.328125 C 2.125 -6.160156 2.195312 -6.003906 2.1875 -5.859375 C 2.175781 -5.722656 2.113281 -5.609375 2 -5.515625 C 1.894531 -5.421875 1.832031 -5.375 1.8125 -5.375 C 1.71875 -5.375 1.648438 -5.515625 1.609375 -5.796875 C 1.515625 -6.140625 1.316406 -6.507812 1.015625 -6.90625 Z M 2.265625 -1.125 C 2.453125 -0.90625 2.734375 -0.691406 3.109375 -0.484375 C 3.484375 -0.273438 4.03125 -0.144531 4.75 -0.09375 C 5.46875 -0.0507812 6.140625 -0.0390625 6.765625 -0.0625 C 7.398438 -0.09375 8.007812 -0.140625 8.59375 -0.203125 L 8.59375 -0.0625 C 8.144531 0.0507812 7.898438 0.25 7.859375 0.53125 C 6.804688 0.53125 5.941406 0.507812 5.265625 0.46875 C 4.597656 0.4375 4.039062 0.332031 3.59375 0.15625 C 3.15625 -0.0195312 2.804688 -0.25 2.546875 -0.53125 C 2.296875 -0.78125 2.113281 -0.90625 2 -0.90625 C 1.894531 -0.90625 1.710938 -0.753906 1.453125 -0.453125 C 1.203125 -0.148438 1.054688 0.0820312 1.015625 0.25 L 0.453125 -0.25 C 0.679688 -0.4375 1.125 -0.738281 1.78125 -1.15625 L 1.78125 -4.015625 L 1.53125 -4.015625 C 1.226562 -4.015625 0.953125 -3.976562 0.703125 -3.90625 L 0.390625 -4.21875 L 1.703125 -4.21875 L 1.984375 -4.578125 L 2.546875 -4.125 L 2.265625 -3.875 Z M 2.265625 -1.125 " />
</g><g id="g9c7494cc448cea7b8f"><path d="M 2.203125 -0.25 L 6.3125 -0.3125 C 6.0625 -0.78125 5.691406 -1.316406 5.203125 -1.921875 L 5.3125 -2.03125 C 6.164062 -1.332031 6.691406 -0.828125 6.890625 -0.515625 C 7.085938 -0.210938 7.1875 0.015625 7.1875 0.171875 C 7.1875 0.316406 7.132812 0.453125 7.03125 0.578125 C 6.925781 0.703125 6.851562 0.765625 6.8125 0.765625 C 6.757812 0.765625 6.703125 0.6875 6.640625 0.53125 C 6.546875 0.25 6.460938 0.0234375 6.390625 -0.140625 C 4.148438 0.0234375 2.878906 0.140625 2.578125 0.203125 C 2.273438 0.273438 2.046875 0.367188 1.890625 0.484375 L 1.5 -0.25 C 1.6875 -0.25 1.921875 -0.398438 2.203125 -0.703125 C 2.484375 -1.003906 2.859375 -1.515625 3.328125 -2.234375 C 3.804688 -2.953125 4.128906 -3.59375 4.296875 -4.15625 L 5.0625 -3.5625 L 4.671875 -3.390625 C 3.816406 -2.085938 2.992188 -1.039062 2.203125 -0.25 Z M 3.3125 -6.984375 L 4.125 -6.453125 L 3.734375 -6.25 C 2.960938 -4.625 1.960938 -3.398438 0.734375 -2.578125 L 0.625 -2.6875 C 1.488281 -3.5 2.132812 -4.296875 2.5625 -5.078125 C 3 -5.859375 3.25 -6.492188 3.3125 -6.984375 Z M 5.65625 -6.984375 L 5.34375 -6.765625 C 5.550781 -6.046875 5.914062 -5.34375 6.4375 -4.65625 C 6.96875 -3.96875 7.625 -3.5 8.40625 -3.25 L 8.40625 -3.140625 C 8.039062 -3.140625 7.773438 -3 7.609375 -2.71875 C 6.960938 -3.226562 6.398438 -3.851562 5.921875 -4.59375 C 5.441406 -5.34375 5.117188 -6.222656 4.953125 -7.234375 Z M 5.65625 -6.984375 " />
</g><g id="ga1816b6bc605166bd0"><path d="M 2.640625 -1.15625 C 2.816406 -1.039062 2.894531 -0.847656 2.875 -0.578125 C 2.863281 -0.304688 2.757812 -0.113281 2.5625 0 C 2.363281 0.113281 2.222656 0.171875 2.140625 0.171875 C 2.046875 0.171875 1.898438 0.113281 1.703125 0 C 1.503906 -0.113281 1.394531 -0.3125 1.375 -0.59375 C 1.363281 -0.882812 1.453125 -1.078125 1.640625 -1.171875 C 1.828125 -1.273438 1.992188 -1.328125 2.140625 -1.328125 C 2.304688 -1.328125 2.472656 -1.269531 2.640625 -1.15625 Z M 2.640625 -3.71875 C 2.835938 -3.625 2.9375 -3.425781 2.9375 -3.125 C 2.9375 -2.832031 2.820312 -2.632812 2.59375 -2.53125 C 2.375 -2.4375 2.222656 -2.390625 2.140625 -2.390625 C 1.992188 -2.390625 1.828125 -2.453125 1.640625 -2.578125 C 1.453125 -2.703125 1.363281 -2.898438 1.375 -3.171875 C 1.394531 -3.441406 1.503906 -3.625 1.703125 -3.71875 C 1.898438 -3.820312 2.054688 -3.875 2.171875 -3.875 C 2.285156 -3.875 2.441406 -3.820312 2.640625 -3.71875 Z M 2.640625 -3.71875 " />
</g><g id="ga876a7e974c942346f"><path d="M 3.5625 -2.828125 C 3.582031 -3.296875 3.59375 -3.832031 3.59375 -4.4375 L 2.6875 -4.4375 L 2.265625 -4.359375 L 1.984375 -4.640625 L 3.59375 -4.640625 C 3.59375 -4.992188 3.582031 -5.378906 3.5625 -5.796875 L 4.328125 -5.40625 L 4.046875 -5.234375 L 4.046875 -4.640625 L 6 -4.640625 C 6 -5.035156 5.988281 -5.410156 5.96875 -5.765625 L 6.765625 -5.40625 L 6.453125 -5.203125 L 6.453125 -4.640625 L 7.125 -4.640625 L 7.578125 -5.09375 L 8.234375 -4.4375 L 6.453125 -4.4375 C 6.453125 -3.757812 6.46875 -3.316406 6.5 -3.109375 L 6 -2.890625 L 6 -3.21875 L 4.046875 -3.21875 L 4.046875 -3.03125 Z M 6.8125 -2.09375 C 6.269531 -1.414062 5.816406 -0.914062 5.453125 -0.59375 C 6.191406 -0.125 7.175781 0.128906 8.40625 0.171875 L 8.40625 0.3125 C 8.039062 0.382812 7.820312 0.535156 7.75 0.765625 C 6.65625 0.554688 5.78125 0.195312 5.125 -0.3125 C 4.007812 0.3125 2.800781 0.707031 1.5 0.875 L 1.46875 0.734375 C 2.695312 0.503906 3.8125 0.0507812 4.8125 -0.625 C 4.375 -1.070312 3.96875 -1.617188 3.59375 -2.265625 L 3.25 -2.265625 L 2.9375 -2.203125 L 2.65625 -2.484375 L 6.3125 -2.484375 L 6.640625 -2.796875 L 7.15625 -2.265625 Z M 3.765625 -2.265625 C 4.210938 -1.660156 4.65625 -1.195312 5.09375 -0.875 C 5.5625 -1.3125 5.957031 -1.773438 6.28125 -2.265625 Z M 4.046875 -4.4375 L 4.046875 -3.421875 L 6 -3.421875 L 6 -4.4375 Z M 1.359375 -6.5 L 1.953125 -6.140625 L 4.71875 -6.140625 C 4.6875 -6.285156 4.628906 -6.4375 4.546875 -6.59375 C 4.472656 -6.757812 4.304688 -6.992188 4.046875 -7.296875 L 4.15625 -7.359375 C 4.6875 -7.128906 4.992188 -6.953125 5.078125 -6.828125 C 5.160156 -6.703125 5.203125 -6.625 5.203125 -6.59375 C 5.203125 -6.457031 5.109375 -6.304688 4.921875 -6.140625 L 7.1875 -6.140625 L 7.6875 -6.640625 L 8.375 -5.9375 L 1.921875 -5.9375 C 1.941406 -4.539062 1.898438 -3.453125 1.796875 -2.671875 C 1.691406 -1.890625 1.519531 -1.21875 1.28125 -0.65625 C 1.050781 -0.101562 0.765625 0.40625 0.421875 0.875 L 0.3125 0.796875 C 0.78125 -0.015625 1.078125 -0.863281 1.203125 -1.75 C 1.328125 -2.632812 1.394531 -3.535156 1.40625 -4.453125 C 1.425781 -5.367188 1.410156 -6.050781 1.359375 -6.5 Z M 1.359375 -6.5 " />
</g><g id="ga8937cef9c7216bc2c"><path d="M 7.875 -0.21875 C 7.875 -0.34375 7.765625 -0.34375 7.625 -0.34375 C 6.953125 -0.34375 6.953125 -0.421875 6.90625 -0.734375 L 6.25 -7.5625 C 6.21875 -7.78125 6.21875 -7.8125 6.046875 -7.8125 C 5.859375 -7.8125 5.828125 -7.75 5.75 -7.640625 L 1.953125 -1.25 C 1.515625 -0.53125 1.09375 -0.375 0.609375 -0.34375 C 0.484375 -0.328125 0.375 -0.328125 0.375 -0.125 C 0.375 -0.046875 0.4375 0 0.53125 0 C 0.8125 0 1.15625 -0.03125 1.46875 -0.03125 C 1.828125 -0.03125 2.203125 0 2.5625 0 C 2.625 0 2.765625 0 2.765625 -0.203125 C 2.765625 -0.328125 2.671875 -0.34375 2.59375 -0.34375 C 2.34375 -0.359375 2.078125 -0.453125 2.078125 -0.71875 C 2.078125 -0.859375 2.140625 -0.96875 2.234375 -1.125 C 2.296875 -1.25 2.3125 -1.25 3.0625 -2.515625 L 5.796875 -2.515625 C 5.828125 -2.296875 5.96875 -0.8125 5.96875 -0.703125 C 5.96875 -0.375 5.40625 -0.34375 5.1875 -0.34375 C 5.03125 -0.34375 4.921875 -0.34375 4.921875 -0.125 C 4.921875 0 5.078125 0 5.078125 0 C 5.53125 0 6 -0.03125 6.4375 -0.03125 C 6.71875 -0.03125 7.40625 0 7.671875 0 C 7.75 0 7.875 0 7.875 -0.21875 Z M 5.765625 -2.859375 L 3.265625 -2.859375 L 5.421875 -6.46875 Z M 5.765625 -2.859375 " />
</g><g id="gaed47a39e18f76477f"><path d="M 5.59375 0.90625 C 5.59375 0.859375 5.578125 0.8125 5.5625 0.78125 L 1.015625 -6.484375 C 0.96875 -6.546875 0.90625 -6.59375 0.828125 -6.59375 C 0.703125 -6.59375 0.609375 -6.484375 0.609375 -6.375 C 0.609375 -6.328125 0.625 -6.28125 0.640625 -6.25 L 5.1875 1.03125 C 5.234375 1.078125 5.296875 1.125 5.375 1.125 C 5.5 1.125 5.59375 1.03125 5.59375 0.90625 Z M 5.59375 0.90625 " />
</g><g id="gb2b6f1847bda19a9ef"><path d="M 5.796875 -5.375 L 5.796875 -3.109375 L 8.65625 -3.109375 L 8.65625 -5.375 Z M 6.953125 -0.171875 C 7.691406 -0.109375 8.160156 -0.0820312 8.359375 -0.09375 C 8.554688 -0.113281 8.65625 -0.3125 8.65625 -0.6875 L 8.65625 -2.859375 L 5.796875 -2.859375 C 5.796875 -1.035156 5.8125 0.046875 5.84375 0.390625 L 5.203125 0.6875 C 5.234375 -0.9375 5.25 -2.117188 5.25 -2.859375 L 2.4375 -2.859375 C 2.238281 -1.347656 1.640625 -0.0507812 0.640625 1.03125 L 0.515625 0.9375 C 1.054688 0.0507812 1.425781 -0.84375 1.625 -1.75 C 1.820312 -2.65625 1.921875 -3.90625 1.921875 -5.5 C 1.921875 -7.09375 1.90625 -8.144531 1.875 -8.65625 L 2.515625 -8.234375 L 8.625 -8.234375 L 8.921875 -8.703125 L 9.59375 -8.1875 L 9.265625 -7.84375 L 9.265625 -0.390625 C 9.285156 0.328125 8.96875 0.785156 8.3125 0.984375 C 8.257812 0.492188 7.804688 0.179688 6.953125 0.046875 Z M 2.515625 -7.984375 L 2.515625 -5.625 L 5.25 -5.625 L 5.25 -7.984375 Z M 5.796875 -7.984375 L 5.796875 -5.625 L 8.65625 -5.625 L 8.65625 -7.984375 Z M 2.515625 -5.375 C 2.484375 -4.175781 2.457031 -3.421875 2.4375 -3.109375 L 5.25 -3.109375 L 5.25 -5.375 Z M 2.515625 -5.375 " />
</g><g id="gb32a7b043fdddd14a6"><path d="M 5.546875 -4.8125 C 5.546875 -6.070312 5.535156 -6.890625 5.515625 -7.265625 L 6.390625 -6.875 L 6.046875 -6.640625 L 6.046875 -4.8125 L 7.046875 -4.8125 L 7.546875 -5.3125 L 8.234375 -4.609375 L 6.046875 -4.609375 L 6.046875 -2.6875 L 6.953125 -2.6875 L 7.40625 -3.140625 L 8.0625 -2.484375 L 6.046875 -2.484375 L 6.046875 -0.03125 L 7.40625 -0.03125 L 7.890625 -0.53125 L 8.59375 0.171875 L 4.015625 0.171875 C 3.710938 0.171875 3.429688 0.207031 3.171875 0.28125 L 2.859375 -0.03125 L 5.546875 -0.03125 L 5.546875 -2.484375 L 4.8125 -2.484375 C 4.507812 -2.484375 4.234375 -2.445312 3.984375 -2.375 L 3.671875 -2.6875 L 5.546875 -2.6875 L 5.546875 -4.609375 L 4.125 -4.609375 C 3.820312 -3.859375 3.484375 -3.253906 3.109375 -2.796875 L 3 -2.859375 C 3.28125 -3.421875 3.515625 -4.046875 3.703125 -4.734375 C 3.890625 -5.421875 4.003906 -5.984375 4.046875 -6.421875 L 4.859375 -6.046875 L 4.53125 -5.828125 L 4.1875 -4.8125 Z M 1.21875 -5.0625 C 1.289062 -4.363281 1.300781 -3.925781 1.25 -3.75 C 1.207031 -3.570312 1.132812 -3.453125 1.03125 -3.390625 C 0.925781 -3.335938 0.835938 -3.3125 0.765625 -3.3125 C 0.722656 -3.3125 0.660156 -3.328125 0.578125 -3.359375 C 0.492188 -3.398438 0.453125 -3.429688 0.453125 -3.453125 C 0.453125 -3.546875 0.535156 -3.6875 0.703125 -3.875 C 0.910156 -4.132812 1.035156 -4.53125 1.078125 -5.0625 Z M 2.203125 -5.515625 C 2.578125 -5.378906 2.84375 -5.25 3 -5.125 C 3.164062 -5.007812 3.234375 -4.859375 3.203125 -4.671875 C 3.179688 -4.492188 3.125 -4.367188 3.03125 -4.296875 C 2.9375 -4.222656 2.847656 -4.316406 2.765625 -4.578125 C 2.640625 -4.828125 2.453125 -5.082031 2.203125 -5.34375 L 2.203125 -0.703125 C 2.203125 -0.304688 2.210938 0.125 2.234375 0.59375 L 1.671875 0.84375 C 1.691406 0.164062 1.703125 -0.441406 1.703125 -0.984375 L 1.703125 -5.90625 C 1.703125 -6.300781 1.691406 -6.773438 1.671875 -7.328125 L 2.515625 -6.953125 L 2.203125 -6.703125 Z M 2.203125 -5.515625 " />
</g><g id="gb32ac5a28ecf28610c"><path d="M 3.609375 0 L 3.609375 -0.28125 L 3.328125 -0.28125 C 2.5625 -0.28125 2.5625 -0.375 2.5625 -0.625 L 2.5625 -4.859375 C 2.5625 -5.0625 2.546875 -5.078125 2.328125 -5.078125 C 1.84375 -4.59375 1.140625 -4.578125 0.828125 -4.578125 L 0.828125 -4.3125 C 1.015625 -4.3125 1.515625 -4.3125 1.9375 -4.515625 L 1.9375 -0.625 C 1.9375 -0.375 1.9375 -0.28125 1.171875 -0.28125 L 0.890625 -0.28125 L 0.890625 0 L 2.25 -0.03125 Z M 3.609375 0 " />
</g><g id="gb992f06346926ec9f4"><path d="M 4.21875 -4.78125 C 4.625 -5.34375 5.023438 -6.050781 5.421875 -6.90625 L 4.5625 -6.90625 C 4.28125 -6.90625 3.984375 -6.863281 3.671875 -6.78125 L 3.28125 -7.171875 L 5.5 -7.171875 C 5.789062 -7.796875 6.019531 -8.40625 6.1875 -9 L 7.078125 -8.40625 L 6.65625 -8.1875 L 6.140625 -7.171875 L 8.625 -7.171875 L 9.265625 -7.765625 L 10.03125 -6.90625 L 6.0625 -6.90625 L 4.828125 -4.5625 L 6.484375 -4.5625 C 6.484375 -5.070312 6.46875 -5.628906 6.4375 -6.234375 L 7.515625 -5.84375 L 7.046875 -5.5 L 7.046875 -4.5625 L 8.1875 -4.5625 L 8.75 -5.125 L 9.515625 -4.3125 L 7.046875 -4.3125 L 7.046875 -2.6875 L 8.953125 -2.6875 L 9.59375 -3.28125 L 10.375 -2.4375 L 7.046875 -2.4375 C 7.046875 -1.75 7.054688 -1.109375 7.078125 -0.515625 L 6.4375 -0.25 C 6.46875 -0.96875 6.484375 -1.695312 6.484375 -2.4375 L 4.484375 -2.4375 C 4.222656 -2.4375 3.9375 -2.390625 3.625 -2.296875 L 3.25 -2.6875 L 6.484375 -2.6875 L 6.484375 -4.3125 L 4.828125 -4.3125 L 4.390625 -3.921875 L 3.796875 -4.609375 Z M 1.234375 -8.453125 L 1.359375 -8.53125 C 1.878906 -8.21875 2.226562 -7.953125 2.40625 -7.734375 C 2.59375 -7.523438 2.675781 -7.332031 2.65625 -7.15625 C 2.644531 -6.988281 2.578125 -6.847656 2.453125 -6.734375 C 2.328125 -6.617188 2.25 -6.5625 2.21875 -6.5625 C 2.101562 -6.5625 2.019531 -6.734375 1.96875 -7.078125 C 1.851562 -7.503906 1.609375 -7.960938 1.234375 -8.453125 Z M 2.765625 -1.359375 C 2.992188 -1.109375 3.335938 -0.851562 3.796875 -0.59375 C 4.253906 -0.34375 4.921875 -0.1875 5.796875 -0.125 C 6.679688 -0.0703125 7.503906 -0.0546875 8.265625 -0.078125 C 9.035156 -0.109375 9.78125 -0.164062 10.5 -0.25 L 10.5 -0.078125 C 9.957031 0.0546875 9.65625 0.296875 9.59375 0.640625 C 8.3125 0.640625 7.257812 0.617188 6.4375 0.578125 C 5.613281 0.535156 4.929688 0.40625 4.390625 0.1875 C 3.847656 -0.0195312 3.421875 -0.296875 3.109375 -0.640625 C 2.796875 -0.953125 2.578125 -1.109375 2.453125 -1.109375 C 2.328125 -1.109375 2.109375 -0.921875 1.796875 -0.546875 C 1.484375 -0.179688 1.296875 0.0976562 1.234375 0.296875 L 0.546875 -0.296875 C 0.835938 -0.523438 1.378906 -0.894531 2.171875 -1.40625 L 2.171875 -4.90625 L 1.875 -4.90625 C 1.507812 -4.90625 1.171875 -4.863281 0.859375 -4.78125 L 0.46875 -5.15625 L 2.09375 -5.15625 L 2.4375 -5.59375 L 3.109375 -5.03125 L 2.765625 -4.734375 Z M 2.765625 -1.359375 " />
</g><g id="gce83f74d2f00baee1b"><path d="M 1.671875 0.390625 L 1.4375 0.171875 L 2.65625 -1.15625 L 2.65625 -5.484375 L 1.46875 -6.703125 L 1.703125 -6.90625 L 3 -5.59375 L 3 -1.046875 Z M 1.671875 0.390625 " />
</g><g id="gd4cf0751e5734c8905"><path d="M 5.203125 -9 L 6.140625 -8.484375 L 5.765625 -8.28125 C 6.328125 -7.195312 7.003906 -6.3125 7.796875 -5.625 C 8.597656 -4.945312 9.46875 -4.507812 10.40625 -4.3125 L 10.40625 -4.140625 C 9.925781 -4.109375 9.628906 -3.9375 9.515625 -3.625 C 8.660156 -4.082031 7.925781 -4.644531 7.3125 -5.3125 C 6.707031 -5.976562 6.144531 -6.894531 5.625 -8.0625 C 4.882812 -6.8125 4.257812 -5.9375 3.75 -5.4375 C 3.238281 -4.9375 2.734375 -4.523438 2.234375 -4.203125 C 1.742188 -3.878906 1.195312 -3.570312 0.59375 -3.28125 L 0.46875 -3.40625 C 1.039062 -3.71875 1.625 -4.128906 2.21875 -4.640625 C 2.8125 -5.160156 3.367188 -5.800781 3.890625 -6.5625 C 4.421875 -7.332031 4.859375 -8.144531 5.203125 -9 Z M 4.609375 -5.84375 C 5.285156 -5.476562 5.738281 -5.1875 5.96875 -4.96875 C 6.195312 -4.757812 6.3125 -4.566406 6.3125 -4.390625 C 6.3125 -4.335938 6.289062 -4.242188 6.25 -4.109375 C 6.207031 -3.984375 6.113281 -3.863281 5.96875 -3.75 C 5.832031 -3.632812 5.707031 -3.765625 5.59375 -4.140625 C 5.476562 -4.484375 5.117188 -5.007812 4.515625 -5.71875 Z M 5.671875 -0.59375 C 6.015625 -1.101562 6.597656 -1.941406 7.421875 -3.109375 L 3.578125 -3.109375 C 3.210938 -3.109375 2.875 -3.066406 2.5625 -2.984375 L 2.171875 -3.375 L 7.421875 -3.375 L 7.984375 -3.921875 L 8.78125 -3.078125 C 8.445312 -3.015625 8.054688 -2.785156 7.609375 -2.390625 C 7.171875 -1.992188 6.597656 -1.367188 5.890625 -0.515625 C 6.484375 -0.203125 6.804688 0.0507812 6.859375 0.25 C 6.921875 0.445312 6.953125 0.5625 6.953125 0.59375 C 6.953125 0.707031 6.921875 0.828125 6.859375 0.953125 C 6.804688 1.085938 6.753906 1.15625 6.703125 1.15625 C 6.609375 1.15625 6.492188 1.066406 6.359375 0.890625 C 6.097656 0.578125 5.660156 0.1875 5.046875 -0.28125 C 4.441406 -0.75 3.828125 -1.140625 3.203125 -1.453125 L 3.25 -1.625 C 4.269531 -1.28125 5.078125 -0.9375 5.671875 -0.59375 Z M 5.671875 -0.59375 " />
</g><g id="gd5efa5e8c33862cb6f"><path d="M 6.25 -1.5625 C 6.25 -1.671875 6.15625 -1.671875 6.109375 -1.671875 C 6 -1.671875 6 -1.625 5.96875 -1.46875 C 5.78125 -0.765625 5.578125 -0.125 5.140625 -0.125 C 4.84375 -0.125 4.8125 -0.40625 4.8125 -0.625 C 4.8125 -0.859375 4.9375 -1.375 5.03125 -1.765625 L 5.328125 -2.9375 C 5.359375 -3.109375 5.46875 -3.515625 5.515625 -3.6875 C 5.5625 -3.9375 5.671875 -4.34375 5.671875 -4.40625 C 5.671875 -4.609375 5.53125 -4.703125 5.359375 -4.703125 C 5.3125 -4.703125 5.03125 -4.703125 4.9375 -4.328125 L 4.421875 -2.28125 L 4.140625 -1.171875 C 4.125 -1.109375 3.609375 -0.125 2.71875 -0.125 C 2.171875 -0.125 1.90625 -0.484375 1.90625 -1.078125 C 1.90625 -1.390625 1.984375 -1.6875 2.0625 -2 L 2.515625 -3.828125 C 2.578125 -4.0625 2.6875 -4.484375 2.6875 -4.53125 C 2.6875 -4.71875 2.5625 -4.828125 2.375 -4.828125 C 2.34375 -4.828125 2.03125 -4.8125 1.9375 -4.4375 L 0.359375 1.890625 C 0.328125 2.015625 0.328125 2.0625 0.328125 2.0625 C 0.328125 2.234375 0.453125 2.359375 0.640625 2.359375 C 0.859375 2.359375 1 2.15625 1.015625 2.125 C 1.0625 2.03125 1.203125 1.46875 1.609375 -0.21875 C 1.96875 0.078125 2.453125 0.125 2.671875 0.125 C 3.4375 0.125 3.859375 -0.375 4.125 -0.671875 C 4.234375 -0.1875 4.625 0.125 5.109375 0.125 C 5.5 0.125 5.75 -0.125 5.921875 -0.484375 C 6.109375 -0.875 6.25 -1.5625 6.25 -1.5625 Z M 6.25 -1.5625 " />
</g><g id="gde81273e51b8f74036"><path d="M 3.140625 -2.265625 L 3.140625 -3.1875 C 3.140625 -5.0625 2 -7.234375 0.796875 -8.140625 C 0.78125 -8.15625 0.75 -8.171875 0.734375 -8.171875 C 0.671875 -8.171875 0.625 -8.109375 0.625 -8.0625 C 0.625 -8.03125 0.640625 -8 0.671875 -7.96875 C 1.796875 -7.125 2.5625 -4.9375 2.5625 -3.1875 L 2.5625 -2.265625 C 2.5625 -0.53125 1.796875 1.65625 0.671875 2.515625 C 0.640625 2.53125 0.625 2.5625 0.625 2.59375 C 0.625 2.65625 0.671875 2.703125 0.734375 2.703125 C 0.75 2.703125 0.78125 2.703125 0.796875 2.6875 C 2 1.78125 3.140625 -0.40625 3.140625 -2.265625 Z M 3.140625 -2.265625 " />
</g><g id="ge254bc498cf95bce55"><path d="M 2.234375 -7.125 L 2.296875 -7.234375 C 2.910156 -6.992188 3.257812 -6.800781 3.34375 -6.65625 C 3.4375 -6.519531 3.484375 -6.40625 3.484375 -6.3125 C 3.484375 -6.195312 3.453125 -6.085938 3.390625 -5.984375 C 3.335938 -5.878906 3.289062 -5.828125 3.25 -5.828125 C 3.175781 -5.828125 3.101562 -5.921875 3.03125 -6.109375 C 2.894531 -6.410156 2.628906 -6.75 2.234375 -7.125 Z M 4.46875 -5.484375 C 4.375 -5.035156 4.289062 -4.6875 4.21875 -4.4375 L 6.5 -4.4375 L 6.953125 -4.890625 L 7.609375 -4.21875 L 4.1875 -4.21875 C 4.09375 -3.894531 3.96875 -3.546875 3.8125 -3.171875 L 7.09375 -3.171875 L 7.640625 -3.734375 L 8.40625 -2.96875 L 3.734375 -2.96875 C 3.015625 -1.613281 1.929688 -0.53125 0.484375 0.28125 L 0.453125 0.140625 C 1.679688 -0.722656 2.613281 -1.757812 3.25 -2.96875 L 1.328125 -2.96875 L 0.84375 -2.890625 L 0.5625 -3.171875 L 3.3125 -3.171875 C 3.457031 -3.523438 3.585938 -3.875 3.703125 -4.21875 L 2.171875 -4.21875 L 1.703125 -4.15625 L 1.4375 -4.4375 L 3.734375 -4.4375 C 3.828125 -4.8125 3.894531 -5.160156 3.9375 -5.484375 L 1.75 -5.484375 L 1.25 -5.40625 L 0.984375 -5.6875 L 5.234375 -5.6875 C 5.648438 -6.476562 5.882812 -7.023438 5.9375 -7.328125 L 6.703125 -6.875 C 6.472656 -6.851562 6.054688 -6.457031 5.453125 -5.6875 L 7.046875 -5.6875 L 7.578125 -6.21875 L 8.3125 -5.484375 Z M 3 -1.78125 L 6.5 -1.78125 L 6.90625 -2.203125 L 7.546875 -1.578125 L 5.375 -1.578125 L 5.375 0.25 L 7.265625 0.25 L 7.75 -0.25 L 8.453125 0.453125 L 2.859375 0.453125 C 2.554688 0.453125 2.28125 0.488281 2.03125 0.5625 L 1.703125 0.25 L 4.890625 0.25 L 4.890625 -1.578125 L 3.671875 -1.578125 L 3.28125 -1.5 Z M 3 -1.78125 " />
</g><g id="ge94601ecbce265dc1b"><path d="M 5.421875 -5.96875 L 5.421875 -4.359375 L 8.40625 -4.359375 L 8.40625 -5.96875 Z M 4.6875 0.21875 C 4.800781 0.0390625 4.859375 -0.160156 4.859375 -0.390625 C 4.859375 -5.390625 4.847656 -8.085938 4.828125 -8.484375 L 5.421875 -8.109375 L 8.359375 -8.109375 L 8.703125 -8.578125 L 9.390625 -7.984375 L 9 -7.71875 C 9 -5.957031 9.015625 -4.722656 9.046875 -4.015625 L 8.40625 -3.71875 L 8.40625 -4.09375 L 6.53125 -4.09375 C 6.664062 -3.4375 6.9375 -2.753906 7.34375 -2.046875 C 8.082031 -2.585938 8.691406 -3.171875 9.171875 -3.796875 L 9.859375 -3.03125 C 9.460938 -3.03125 8.664062 -2.628906 7.46875 -1.828125 C 7.976562 -1.179688 8.507812 -0.734375 9.0625 -0.484375 C 9.613281 -0.242188 10.035156 -0.109375 10.328125 -0.078125 L 10.328125 0.078125 C 9.929688 0.109375 9.628906 0.3125 9.421875 0.6875 C 8.742188 0.34375 8.097656 -0.210938 7.484375 -0.984375 C 6.867188 -1.753906 6.460938 -2.789062 6.265625 -4.09375 L 5.421875 -4.09375 L 5.421875 -0.21875 L 7.046875 -0.984375 L 7.125 -0.859375 C 6.21875 -0.285156 5.59375 0.296875 5.25 0.890625 Z M 2.609375 -5.25 L 3.28125 -7.890625 L 1.796875 -7.890625 L 1.796875 -1.234375 C 1.796875 -0.460938 1.804688 0.21875 1.828125 0.8125 L 1.1875 1.0625 C 1.21875 0.351562 1.234375 -1.285156 1.234375 -3.859375 C 1.234375 -6.429688 1.21875 -7.972656 1.1875 -8.484375 L 1.828125 -8.15625 L 3.28125 -8.15625 L 3.671875 -8.53125 L 4.21875 -7.984375 L 3.875 -7.765625 L 2.8125 -5.25 C 3.207031 -4.820312 3.507812 -4.429688 3.71875 -4.078125 C 3.9375 -3.722656 4.066406 -3.332031 4.109375 -2.90625 C 4.160156 -2.476562 4.097656 -2.113281 3.921875 -1.8125 C 3.753906 -1.507812 3.398438 -1.289062 2.859375 -1.15625 C 2.890625 -1.488281 2.59375 -1.785156 1.96875 -2.046875 L 1.96875 -2.21875 C 2.394531 -2.132812 2.691406 -2.09375 2.859375 -2.09375 C 3.140625 -2.09375 3.320312 -2.15625 3.40625 -2.28125 C 3.5 -2.40625 3.546875 -2.582031 3.546875 -2.8125 C 3.546875 -3.007812 3.515625 -3.28125 3.453125 -3.625 C 3.398438 -3.96875 3.117188 -4.507812 2.609375 -5.25 Z M 5.421875 -7.84375 L 5.421875 -6.234375 L 8.40625 -6.234375 L 8.40625 -7.84375 Z M 5.421875 -7.84375 " />
</g><g id="gef11cb5aabdf613fe5"><path d="M 2.15625 -0.9375 C 2.300781 -0.84375 2.367188 -0.6875 2.359375 -0.46875 C 2.347656 -0.25 2.257812 -0.09375 2.09375 0 C 1.925781 0.09375 1.8125 0.140625 1.75 0.140625 C 1.675781 0.140625 1.554688 0.09375 1.390625 0 C 1.234375 -0.09375 1.148438 -0.253906 1.140625 -0.484375 C 1.128906 -0.722656 1.195312 -0.878906 1.34375 -0.953125 C 1.5 -1.035156 1.632812 -1.078125 1.75 -1.078125 C 1.882812 -1.078125 2.019531 -1.03125 2.15625 -0.9375 Z M 2.15625 -3.046875 C 2.320312 -2.972656 2.40625 -2.8125 2.40625 -2.5625 C 2.40625 -2.320312 2.3125 -2.160156 2.125 -2.078125 C 1.9375 -1.992188 1.8125 -1.953125 1.75 -1.953125 C 1.632812 -1.953125 1.5 -2.003906 1.34375 -2.109375 C 1.195312 -2.210938 1.128906 -2.375 1.140625 -2.59375 C 1.148438 -2.820312 1.234375 -2.972656 1.390625 -3.046875 C 1.554688 -3.128906 1.6875 -3.171875 1.78125 -3.171875 C 1.875 -3.171875 2 -3.128906 2.15625 -3.046875 Z M 2.15625 -3.046875 " />
</g><g id="gfbb97bfdf00618d0fb"><path d="M 4.359375 0.90625 C 4.390625 0.394531 4.40625 -0.144531 4.40625 -0.71875 C 4.40625 -1.289062 4.390625 -1.796875 4.359375 -2.234375 L 4.859375 -1.953125 L 5.828125 -1.953125 L 5.828125 -3.359375 L 4.1875 -3.359375 C 4.019531 -1.703125 3.40625 -0.335938 2.34375 0.734375 L 2.234375 0.625 C 2.742188 -0.0507812 3.132812 -0.8125 3.40625 -1.65625 C 3.675781 -2.507812 3.816406 -3.5 3.828125 -4.625 C 3.835938 -5.75 3.832031 -6.554688 3.8125 -7.046875 L 4.328125 -6.734375 L 7.1875 -6.734375 L 7.46875 -7.015625 L 7.953125 -6.5625 L 7.6875 -6.390625 C 7.6875 -5.691406 7.695312 -5.179688 7.71875 -4.859375 L 7.234375 -4.640625 L 7.234375 -5.0625 L 4.296875 -5.0625 C 4.296875 -4.625 4.269531 -4.125 4.21875 -3.5625 L 5.828125 -3.5625 C 5.828125 -4 5.816406 -4.429688 5.796875 -4.859375 L 6.5625 -4.5 L 6.28125 -4.296875 L 6.28125 -3.5625 L 7.4375 -3.5625 L 7.828125 -3.9375 L 8.40625 -3.359375 L 6.28125 -3.359375 L 6.28125 -1.953125 L 7.1875 -1.953125 L 7.46875 -2.265625 L 7.953125 -1.8125 L 7.6875 -1.609375 C 7.6875 -0.671875 7.695312 0.0507812 7.71875 0.5625 L 7.234375 0.84375 L 7.234375 0.109375 L 4.859375 0.109375 L 4.859375 0.703125 Z M 4.296875 -6.53125 L 4.296875 -5.265625 L 7.234375 -5.265625 L 7.234375 -6.53125 Z M 4.859375 -1.75 L 4.859375 -0.109375 L 7.234375 -0.109375 L 7.234375 -1.75 Z M 2.34375 -3.421875 L 3.484375 -4.078125 L 3.5625 -3.9375 L 2.34375 -3.03125 L 2.34375 -0.203125 C 2.3125 0.210938 2.054688 0.515625 1.578125 0.703125 C 1.617188 0.460938 1.328125 0.21875 0.703125 -0.03125 L 0.703125 -0.171875 C 1.210938 -0.078125 1.53125 -0.0351562 1.65625 -0.046875 C 1.78125 -0.0546875 1.84375 -0.144531 1.84375 -0.3125 L 1.84375 -2.796875 C 1.195312 -2.328125 0.863281 -2.023438 0.84375 -1.890625 L 0.3125 -2.515625 C 0.457031 -2.535156 0.96875 -2.769531 1.84375 -3.21875 L 1.84375 -5 L 1.046875 -5 L 0.625 -4.921875 L 0.34375 -5.203125 L 1.84375 -5.203125 C 1.84375 -6.160156 1.832031 -6.835938 1.8125 -7.234375 L 2.625 -6.8125 L 2.34375 -6.5625 L 2.34375 -5.203125 L 2.71875 -5.203125 L 3.171875 -5.59375 L 3.703125 -5 L 2.34375 -5 Z M 2.34375 -3.421875 " />
</g></defs>
<g fill="rgb(12.5%, 14.898682%, 19.999695%)" fill-opacity="1">
<use xlink:href="#gd4cf0751e5734c8905" x="0.992276" y="10.084994" />
</g>
<g fill="rgb(12.5%, 14.898682%, 19.999695%)" fill-opacity="1">
<use xlink:href="#g183c8344082a5ae6ac" x="15.488874" y="10.084994" />
</g>
<g fill="rgb(12.5%, 14.898682%, 19.999695%)" fill-opacity="1">
<use xlink:href="#g8bcbc09aed570bf65f" x="23.775775" y="12.781873" />
</g>
<g fill="rgb(12.5%, 14.898682%, 19.999695%)" fill-opacity="1">
<use xlink:href="#g599594c5fd32c87956" x="32.700283" y="10.084994" />
</g>
<g fill="rgb(12.5%, 14.898682%, 19.999695%)" fill-opacity="1">
<use xlink:href="#ga8937cef9c7216bc2c" x="44.218697" y="10.084994" />
</g>
<g fill="rgb(12.5%, 14.898682%, 19.999695%)" fill-opacity="1">
<use xlink:href="#gb32ac5a28ecf28610c" x="52.416294" y="12.781873" />
</g>
<g fill="rgb(12.5%, 14.898682%, 19.999695%)" fill-opacity="1">
<use xlink:href="#gaed47a39e18f76477f" x="59.573435" y="10.084994" />
</g>
<g fill="rgb(12.5%, 14.898682%, 19.999695%)" fill-opacity="1">
<use xlink:href="#ga8937cef9c7216bc2c" x="68.0785" y="10.084994" />
</g>
<g fill="rgb(12.5%, 14.898682%, 19.999695%)" fill-opacity="1">
<use xlink:href="#g8bcbc09aed570bf65f" x="76.274758" y="12.781873" />
</g>
<g fill="rgb(12.5%, 14.898682%, 19.999695%)" fill-opacity="1">
<use xlink:href="#g1afc2da8b6d06e38f9" x="82.166648" y="10.084994" />
</g>
<g fill="rgb(12.5%, 14.898682%, 19.999695%)" fill-opacity="1">
<use xlink:href="#g089936eac202d08a10" x="92.778873" y="10.084994" />
</g>
<g fill="rgb(12.5%, 14.898682%, 19.999695%)" fill-opacity="1">
<use xlink:href="#g183c8344082a5ae6ac" x="107.271435" y="10.084994" />
</g>
<g fill="rgb(12.5%, 14.898682%, 19.999695%)" fill-opacity="1">
<use xlink:href="#g8bcbc09aed570bf65f" x="115.558336" y="12.781873" />
</g>
<g fill="rgb(12.5%, 14.898682%, 19.999695%)" fill-opacity="1">
<use xlink:href="#g60f0e3744ec6008f66" x="124.483841" y="10.084994" />
</g>
<g fill="rgb(12.5%, 14.898682%, 19.999695%)" fill-opacity="1">
<use xlink:href="#ga8937cef9c7216bc2c" x="132.967071" y="10.084994" />
</g>
<g fill="rgb(12.5%, 14.898682%, 19.999695%)" fill-opacity="1">
<use xlink:href="#gb32ac5a28ecf28610c" x="141.164243" y="12.781873" />
</g>
<g fill="rgb(12.5%, 14.898682%, 19.999695%)" fill-opacity="1">
<use xlink:href="#gaed47a39e18f76477f" x="148.321384" y="10.084994" />
</g>
<g fill="rgb(12.5%, 14.898682%, 19.999695%)" fill-opacity="1">
<use xlink:href="#ga8937cef9c7216bc2c" x="156.82645" y="10.084994" />
</g>
<g fill="rgb(12.5%, 14.898682%, 19.999695%)" fill-opacity="1">
<use xlink:href="#g474f952788082e5d65" x="165.022708" y="10.084994" />
</g>
<g fill="rgb(12.5%, 14.898682%, 19.999695%)" fill-opacity="1">
<use xlink:href="#g9a4c6c65c2f18e3138" x="175.689523" y="10.084994" />
<use xlink:href="#gb2b6f1847bda19a9ef" x="186.607451" y="10.084994" />
<use xlink:href="#g28effd3c3ff7bcf0d9" x="197.525378" y="10.084994" />
<use xlink:href="#g3a06732d41ef58e1ef" x="208.443306" y="10.084994" />
</g>
<g fill="rgb(12.5%, 14.898682%, 19.999695%)" fill-opacity="1">
<use xlink:href="#gb992f06346926ec9f4" x="0.992276" y="28.665266" />
<use xlink:href="#g7f9c2accc4d0c8cf52" x="11.910204" y="28.665266" />
<use xlink:href="#g34a1af443561908d94" x="22.828131" y="28.665266" />
<use xlink:href="#g1afc2da8b6d06e38f9" x="33.746059" y="28.665266" />
<use xlink:href="#g8f58d3e4e437032ffc" x="44.663986" y="28.665266" />
<use xlink:href="#g70e8edf11b86592df5" x="55.581914" y="28.665266" />
<use xlink:href="#g7b26853da16bdcbbd7" x="66.499841" y="28.665266" />
<use xlink:href="#ge94601ecbce265dc1b" x="77.417769" y="28.665266" />
<use xlink:href="#g587dac9863b7cbc5b5" x="88.335697" y="28.665266" />
</g>
<g fill="rgb(12.5%, 14.898682%, 19.999695%)" fill-opacity="1">
<use xlink:href="#gd5efa5e8c33862cb6f" x="102.889878" y="28.665266" />
<use xlink:href="#g4af91d49014f4c4063" x="109.473388" y="28.665266" />
<use xlink:href="#ga8937cef9c7216bc2c" x="113.720462" y="28.665266" />
</g>
<g fill="rgb(12.5%, 14.898682%, 19.999695%)" fill-opacity="1">
<use xlink:href="#gb32ac5a28ecf28610c" x="121.908505" y="31.362145" />
</g>
<g fill="rgb(12.5%, 14.898682%, 19.999695%)" fill-opacity="1">
<use xlink:href="#gde81273e51b8f74036" x="126.753324" y="28.665266" />
</g>
<g fill="rgb(12.5%, 14.898682%, 19.999695%)" fill-opacity="1">
<use xlink:href="#g30f4c8b890f5a38d28" x="134.636739" y="28.665266" />
<use xlink:href="#g3b06ba7a68cb4c6d16" x="145.554667" y="28.665266" />
<use xlink:href="#ga1816b6bc605166bd0" x="156.472594" y="28.665266" />
</g>
<g fill="rgb(12.5%, 14.898682%, 19.999695%)" fill-opacity="1">
<use xlink:href="#gd5efa5e8c33862cb6f" x="29.96455" y="57.17129" />
<use xlink:href="#g4af91d49014f4c4063" x="36.54806" y="57.17129" />
<use xlink:href="#ga8937cef9c7216bc2c" x="40.795134" y="57.17129" />
</g>
<g fill="rgb(12.5%, 14.898682%, 19.999695%)" fill-opacity="1">
<use xlink:href="#gb32ac5a28ecf28610c" x="48.983177" y="59.868169" />
</g>
<g fill="rgb(12.5%, 14.898682%, 19.999695%)" fill-opacity="1">
<use xlink:href="#gde81273e51b8f74036" x="53.828992" y="57.17129" />
</g>
<g fill="rgb(12.5%, 14.898682%, 19.999695%)" fill-opacity="1">
<use xlink:href="#g58712765af41dfc56c" x="60.499846" y="57.17129" />
</g>
<g fill="rgb(12.5%, 14.898682%, 19.999695%)" fill-opacity="1">
<use xlink:href="#gd5efa5e8c33862cb6f" x="71.417773" y="57.17129" />
<use xlink:href="#g4af91d49014f4c4063" x="78.001284" y="57.17129" />
<use xlink:href="#ga8937cef9c7216bc2c" x="82.248358" y="57.17129" />
</g>
<g fill="rgb(12.5%, 14.898682%, 19.999695%)" fill-opacity="1">
<use xlink:href="#g8bcbc09aed570bf65f" x="90.441594" y="59.868169" />
</g>
<g fill="rgb(12.5%, 14.898682%, 19.999695%)" fill-opacity="1">
<use xlink:href="#gde81273e51b8f74036" x="96.333483" y="57.17129" />
</g>
<g fill="rgb(12.5%, 14.898682%, 19.999695%)" fill-opacity="1">
<use xlink:href="#g4029f1e70c4c6b236e" x="103.604822" y="57.17129" />
</g>
<g fill="rgb(12.5%, 14.898682%, 19.999695%)" fill-opacity="1">
<use xlink:href="#gd5efa5e8c33862cb6f" x="122.612934" y="57.17129" />
<use xlink:href="#g4af91d49014f4c4063" x="129.196445" y="57.17129" />
<use xlink:href="#ga8937cef9c7216bc2c" x="133.443518" y="57.17129" />
</g>
<g fill="rgb(12.5%, 14.898682%, 19.999695%)" fill-opacity="1">
<use xlink:href="#gb32ac5a28ecf28610c" x="141.638464" y="59.868169" />
</g>
<g fill="rgb(12.5%, 14.898682%, 19.999695%)" fill-opacity="1">
<use xlink:href="#gde81273e51b8f74036" x="146.483282" y="57.17129" />
</g>
<g fill="rgb(12.5%, 14.898682%, 19.999695%)" fill-opacity="1">
<use xlink:href="#g58712765af41dfc56c" x="153.154136" y="57.17129" />
</g>
<g fill="rgb(12.5%, 14.898682%, 19.999695%)" fill-opacity="1">
<use xlink:href="#gd5efa5e8c33862cb6f" x="164.072063" y="57.17129" />
<use xlink:href="#g4af91d49014f4c4063" x="170.655574" y="57.17129" />
<use xlink:href="#ga8937cef9c7216bc2c" x="174.902647" y="57.17129" />
<use xlink:href="#gde81273e51b8f74036" x="183.091093" y="57.17129" />
<use xlink:href="#g165caa390c0dcf9405" x="187.338167" y="57.17129" />
</g>
<g fill="rgb(36.099243%, 39.99939%, 36.898804%)" fill-opacity="1">
<use xlink:href="#g3b5b9df9ffe876bff8" x="-4.834856" y="85.676317" />
<use xlink:href="#g58bc7bb2df7d548b8f" x="4.098021" y="85.676317" />
<use xlink:href="#gfbb97bfdf00618d0fb" x="13.030898" y="85.676317" />
<use xlink:href="#gef11cb5aabdf613fe5" x="21.963775" y="85.676317" />
<use xlink:href="#g1cb0de1f29c6a38da0" x="30.896652" y="85.676317" />
<use xlink:href="#g89bddbb2ed3abd42e4" x="39.829529" y="85.676317" />
<use xlink:href="#g9ac128dfcada4634f7" x="48.762406" y="85.676317" />
<use xlink:href="#g7228247f6e82a92b13" x="57.695283" y="85.676317" />
<use xlink:href="#gb32a7b043fdddd14a6" x="66.62816" y="85.676317" />
<use xlink:href="#g6bdb6a1ea40d451141" x="75.561037" y="85.676317" />
<use xlink:href="#g3465c03aff4d4c8114" x="84.493914" y="85.676317" />
<use xlink:href="#g6989a21a93d5a4b219" x="93.426791" y="85.676317" />
<use xlink:href="#g0d5ea79506bcbccf3c" x="102.359668" y="85.676317" />
<use xlink:href="#ga876a7e974c942346f" x="111.292545" y="85.676317" />
<use xlink:href="#ge254bc498cf95bce55" x="120.225422" y="85.676317" />
<use xlink:href="#g10ea6d82b134e9832f" x="129.158299" y="85.676317" />
<use xlink:href="#g9c7494cc448cea7b8f" x="138.091176" y="85.676317" />
<use xlink:href="#g3f49ada76469952ca6" x="147.024053" y="85.676317" />
<use xlink:href="#g8922ab85091cf65321" x="155.95693" y="85.676317" />
</g>
<g fill="rgb(36.099243%, 39.99939%, 36.898804%)" fill-opacity="1">
<use xlink:href="#gce83f74d2f00baee1b" x="160.432301" y="85.676317" />
</g>
</svg>